<?xml version="1.0" encoding="UTF-8"?>
<!DOCTYPE svg PUBLIC "-//W3C//DTD SVG 1.1//EN" "http://www.w3.org/Graphics/SVG/1.1/DTD/svg11.dtd">
<!-- Creator: CorelDRAW -->
<svg xmlns="http://www.w3.org/2000/svg" xml:space="preserve" width="86.6986mm" height="86.6986mm" version="1.1" style="shape-rendering:geometricPrecision; text-rendering:geometricPrecision; image-rendering:optimizeQuality; fill-rule:evenodd; clip-rule:evenodd"
viewBox="0 0 8669.86 8669.86"
 xmlns:xlink="http://www.w3.org/1999/xlink"
 xmlns:xodm="http://www.corel.com/coreldraw/odm/2003">
 <defs>
  <style type="text/css">
   <![CDATA[
    .fil24 {fill:#040303}
    .fil0 {fill:#060505}
    .fil15 {fill:#060505}
    .fil22 {fill:#0A0100}
    .fil4 {fill:#414241}
    .fil1 {fill:#5E605F}
    .fil26 {fill:#6A6A66}
    .fil8 {fill:#737573}
    .fil11 {fill:#B5B2AC}
    .fil13 {fill:#BABABA}
    .fil21 {fill:#C25B1E}
    .fil30 {fill:#C45B1B}
    .fil31 {fill:#C45B1B}
    .fil9 {fill:#C7591A}
    .fil6 {fill:#C7C2BB}
    .fil20 {fill:#D37A42}
    .fil5 {fill:#D7753A}
    .fil2 {fill:#D7D7D7}
    .fil29 {fill:#D9A37A}
    .fil10 {fill:#DA6118}
    .fil28 {fill:#DAB498}
    .fil14 {fill:#E29D6A}
    .fil7 {fill:#E9E9E6}
    .fil3 {fill:#EA7428}
    .fil27 {fill:#EA7428}
    .fil23 {fill:#F7F6F2}
    .fil25 {fill:#FBFBFB}
    .fil12 {fill:#FBFCFB}
    .fil17 {fill:url(#id0)}
    .fil16 {fill:url(#id1)}
    .fil18 {fill:url(#id2)}
    .fil19 {fill:url(#id3)}
   ]]>
  </style>
  <linearGradient id="id0" gradientUnits="userSpaceOnUse" x1="4663.38" y1="1599.7" x2="4484.87" y2="1725.82">
   <stop offset="0" style="stop-opacity:1; stop-color:white"/>
   <stop offset="0.219608" style="stop-opacity:1; stop-color:#838282"/>
   <stop offset="1" style="stop-opacity:1; stop-color:#060505"/>
  </linearGradient>
  <linearGradient id="id1" gradientUnits="userSpaceOnUse" x1="4054.24" y1="1345.88" x2="4058.71" y2="1542.92">
   <stop offset="0" style="stop-opacity:1; stop-color:white"/>
   <stop offset="0.239216" style="stop-opacity:1; stop-color:#838282"/>
   <stop offset="1" style="stop-opacity:1; stop-color:#060505"/>
  </linearGradient>
  <linearGradient id="id2" gradientUnits="userSpaceOnUse" x1="3354.89" y1="1353.9" x2="3466.95" y2="1468.58">
   <stop offset="0" style="stop-opacity:1; stop-color:#FBFCFB"/>
   <stop offset="0.431373" style="stop-opacity:1; stop-color:#ADAEAD"/>
   <stop offset="1" style="stop-opacity:1; stop-color:#5E605F"/>
  </linearGradient>
  <linearGradient id="id3" gradientUnits="userSpaceOnUse" x1="2965.5" y1="1276.85" x2="2987.4" y2="1526.29">
   <stop offset="0" style="stop-opacity:1; stop-color:#FBFCFB"/>
   <stop offset="1" style="stop-opacity:1; stop-color:#5E605F"/>
  </linearGradient>
 </defs>
 <g id="Camada_x0020_1">
  <metadata id="CorelCorpID_0Corel-Layer"/>
  <g id="_2599796898416">
   <path class="fil0" d="M5194.84 7114.54c78.45,-33.8 61.22,-79.19 102.3,-102.75 42.27,50.15 44.64,130.89 135.37,122.47 57.8,-5.36 39.34,-61.05 193.88,-75 178.5,-16.11 86.5,-192.11 140.95,-236.73 8.9,-7.3 32.26,-18.8 42.06,-26.19 20.72,-15.65 11.13,-12.84 35.09,-25.18 17.9,101.17 -31.31,181.04 48.69,255.01 57.13,52.82 183.72,-2.3 213.54,-25.39l20.16 -15.89c32.87,49.23 79.5,147.37 126.29,164.09 116.53,41.63 101.43,-134.36 118.05,-153.3 30.18,-20.89 134.99,-33.59 178.73,-42.24 77.88,-15.41 112.31,-15.94 169.59,-53.25 106.3,58.98 129.73,161.39 386.8,-61.32 36.75,37.33 108.29,117.07 186.76,103.92 103.87,-17.4 271.52,-162.71 320,-272.91 50.56,-114.95 6.43,-156.94 -31.06,-234.56 69.29,-26.21 74.33,-122.48 62.06,-203.5 -8.77,-57.98 -29.07,-99.46 -68.87,-134.27 -7.52,-6.58 -10.84,-8.57 -19.16,-14.84l-23.31 -18.36c93.4,-109.95 24.16,-55.37 67.29,-118.04 28.33,-41.16 71.72,-52.84 84.8,-103.7 36.13,-140.47 -132.84,-153.72 -223.74,-149.27l41.41 -40.05c85.67,-87.25 57.02,-109.83 108.25,-145.47 33.91,-23.59 56.97,-56.23 41.11,-119.79 -13.58,-54.43 -62.66,-66.61 -87.22,-85.68 88.15,-35.46 81.54,-14.23 131.43,-90.12 13.82,-21.03 24.49,-49.16 39.16,-70.88 7.61,-11.27 173.56,-124.3 37.27,-214.93 -58.33,-38.79 -118.4,-32.97 -194.19,-26.5 -124.12,10.61 -470.13,43.96 -577.73,99.48 -88.71,45.78 -44.92,-12.67 -168.33,-14.17l-40.99 -8.38c-8.7,-163.05 11.85,-223.05 -92.75,-364.65 -19.43,-26.31 -54.28,-56.6 -63.96,-86.53 98.05,41.98 91.32,-91.05 169.64,-151.23 13.81,19.97 13.2,34.95 33.86,51.18 64.7,-41.43 218.83,-360.49 246.92,-461.92 73.54,7.07 218.53,80.97 398.27,-31.34 90.64,-56.64 168.99,-158.62 174.23,-306.45 5.92,-166.75 -83.57,-251.39 -151.48,-329.38 -122.75,-140.97 -37.86,-332.44 77.33,-240.34 -0.45,52.16 -33.29,51.81 -10.64,96.38 68.95,110.7 258.27,-83.21 118.61,-235.89 -36.98,-40.42 -99.32,-71.76 -176.54,-75.58 -38.44,-1.9 -75.47,0.73 -111.91,12.06 -39.1,12.16 -50.76,30.25 -79.08,40.87l-6.89 -232.23c58.7,15.51 91.14,70.8 139.67,75.84 -8.71,-170.13 -137.55,-414.44 -246.47,-542.22 -21.52,-25.24 -115.89,-118.18 -122.26,-130.93l81.39 -12.27c-14.51,-70.79 -315.64,-222.33 -405.38,-265.36 -17.19,-8.25 -57.46,-21.79 -68.12,-35.15 -0.05,-0.07 -41.71,-309.74 -314.49,-300.83 -110.01,3.59 -187.63,-17.61 -274.68,38.06 -93.35,59.7 -71.31,101.96 -132.07,183.6 -26.65,-33.52 -22.45,-78.77 -5.63,-117.82 28.54,-66.31 13.05,-61.96 10.13,-125.63 56.08,-1.72 82.6,15.49 113.33,-30.38 24.92,-37.19 25.06,-88.95 7.03,-133.05 -37.07,-90.67 -94.39,-107.64 -210.52,-112.13 -26.7,-48.4 -38.86,-76.48 -79.12,-105.98 -32.7,-23.96 -33.17,-13.24 -68.23,-25.38 -26.38,-9.14 -158.14,-141.16 -342.73,49.6 -40.07,-11.04 -110.57,-60.98 -260.42,-105.93l-358.91 -89.91c-112.73,-20.99 -9.57,-49.87 -159.85,-119.84 -180.98,-84.27 -258.31,45.1 -270.68,46.8 -299.4,-70 -509.23,8.58 -755.3,112.36 -137.01,57.79 -433.03,169.42 -551.46,261.05 -28.85,22.33 -38.33,37.68 -64.84,57.4 -50.63,-5.04 -66.83,-25.12 -120.72,-21.87 -3.01,55.58 31.94,92.96 11.17,136.86 -15.15,9.5 -377.29,71.96 -442.64,90.52 -139.02,39.5 -273.01,81.01 -399.49,134.58 -121.66,51.53 -261.89,120.59 -343.75,189.64 -37.2,31.37 -94.96,94.37 -121.33,140.72 -42.3,74.34 -48.07,129.7 -43.74,225.38 -101.04,29.99 -441.75,285.28 -469.91,414.22l88.1 -20.98c-15.52,41.53 -41.68,67.81 -62.88,103.82 -39.46,67.01 -157.46,263.8 -161.86,320.61l92.1 -24.87c-20.51,108.58 -84.38,231.32 -53.74,353.72 33.32,-2.93 50.27,-31.64 81.84,-49.74 -18.85,137.38 -45.37,248.22 -8.65,389.89 36.75,-16.1 39.67,-40.04 67.88,-56.83 11.68,51.64 11.32,115.54 26.27,175.11 15.39,61.35 39.46,109.38 54.27,164.54 -149.97,28.93 -263.17,154.62 -287.08,316 -17.2,116.15 38.15,265.6 109.34,337.56 19.75,19.96 56.1,48.94 76.3,72.44 -23.63,29.59 -211.87,111.52 -184.46,364.4 18.68,172.44 107.99,252.96 263.9,286.6 -38.63,246.54 113.37,391.98 351.63,390.47l-5.47 126.57c-155.43,-11.62 -225.44,84.9 -218.26,203.59 5.24,86.47 25.22,46.02 -22.42,105.27 -42.56,52.95 -47.1,151.11 -10.12,214.43 44.3,75.87 76.51,87.29 180.38,107.74 79.33,160.82 134.19,72.07 167.07,146.14 31.98,72.01 18.82,85.16 99.34,171.41 53.27,57.07 94.27,88.81 190.94,121.81 88.28,30.13 188.3,34.28 277.85,8.66 107.94,-30.89 133.58,-63.08 200.07,-115.43l218.16 206.83c15.85,26.25 44.38,121.26 57.24,155.13 36.08,95.04 67.91,211.47 143.13,279.75 49.75,45.17 41.56,74.57 89.23,122.42 36.9,37.04 62.62,79.27 97.39,114.37 79.54,80.28 266.31,228.42 370.93,263.58 110.82,37.24 254.89,57.74 365.69,14.99 86.84,-33.5 168.46,-100.11 207.79,-104.74 84.12,-9.91 115.8,-53.24 172.68,-149.3 61.6,-104.03 18.9,-119.94 84.51,-117.1 12.72,107.12 -41.14,260.44 105.69,247.6 67.97,-5.94 71.27,-41.93 69.84,-108.56 -1.34,-62.7 -5.9,-125.63 -3.47,-188.3 192.86,-29.7 553.81,-226.57 734.98,-341.04 72.97,-46.11 35.83,-21.94 121.84,-37.77z"/>
   <path class="fil1" d="M2721.05 4057.71c134.65,-130.76 554.37,-19.39 712.49,110.88 24.04,19.81 81.83,69.44 102.86,68.61 -16.49,-38.12 -48.11,-75.27 -74.2,-107.08 -17.71,-21.6 8.01,0.38 -13.93,-17.71 -16.85,-13.89 -1.68,-8.98 -13.84,-3.9l22.97 9.72c1.29,0.94 3.33,2.68 4.64,3.73l72.56 64.08c6.27,8.95 7.2,12.2 13.57,20.51 87.15,113.6 75,142.42 106.44,184.99 34.13,-72.61 12.19,-214.72 -6.4,-293.15 -8.37,-35.32 -21.33,-53.58 -29.17,-83.82 34.39,25.16 49.32,52.74 70.18,101.35 41.07,95.69 19.65,99.6 41.59,136.71 72.98,-141.16 -27.58,-487.89 -118.91,-592.53 -24.17,-27.7 -38.01,-33.35 -81.45,-90.39 47.68,26.19 38.41,14.65 71.12,49.47 65.18,69.38 61.94,44.56 138.99,149.87 82.92,113.31 155.86,287.75 168.02,424.29 7.71,86.64 2.62,151.09 -6.76,234.47 -3.64,32.35 -3.21,53.54 12.5,73.49 20.6,-31.9 19.7,-35.07 54.75,-52.51 -40.89,-131.83 -23.94,-223.68 46.01,-335.7 17.43,-27.91 21.83,-36.34 47.59,-62.43 87.84,-88.95 76.19,-84.19 195.33,-128.37 -37.37,-12.3 -55.24,-14.57 -89.78,-29.82 -93.53,-41.31 -168.96,-102.2 -241.93,-164.57 28.88,81.98 87.7,105.56 112.51,171.02 -62.92,-25.62 -131.23,-118 -166.05,-177.73 -44.36,-76.1 -59.25,-152.94 -116.07,-231.24 3.55,85.24 38.34,140.01 48.94,216.71 -77.14,-48.53 -119.5,-236.04 -137.15,-321.58 -33.44,-162.04 -22.11,-262.27 10.91,-416.99 -90.92,6.97 -174.12,-62.04 -178.92,-139.72 48.15,29.33 49.29,72.69 128.31,76.88 -55.94,-61.64 -105.12,-93.34 -98.11,-226.39 4.73,-89.87 59.28,-183.45 120.82,-205.28 -23.82,44.22 -41.3,59.73 -51.47,127.62 -25.88,172.8 102.68,260.51 274.37,280.81 171.59,20.29 345.23,-37.17 517.14,-27.75 63.39,3.48 73.58,-4.58 135.17,-45.22 1.48,-0.98 4.12,-2.72 5.95,-4.35 -12.31,-10.75 -2.87,-5.84 -24.32,-17.82 -22.01,-12.31 -64.53,-26.56 -86.61,-19.63 71.4,-29.51 144.98,15.08 206.86,20.9 84.94,8 144.5,16.02 228.3,30.05 -13.07,-57.7 -68.23,-137.68 -97.98,-169.53 -175.84,-188.24 -424.36,-105.33 -659.82,-153.22 111.91,-56.68 386.16,-90.02 515.98,-60.4 63.42,14.47 102.28,35.91 153.67,51.34 2.33,21.11 -3.84,-1.67 4.65,-3.59 41.33,-9.33 150.09,183.81 165.22,224.84 12.52,33.97 16.55,88.61 28.35,117.87 186.87,15.31 411.13,-188.82 196.05,-290.28 28.56,95.24 14.95,110.43 -6.84,204.3 -40.91,-40.27 -78.52,-255.74 -192.38,-252.56 53.77,53.32 82.51,188.44 81,286.24 -43.48,-18.82 -22.11,-48.75 -76.99,-130.77 -24.4,-36.46 -66.23,-81.9 -93.92,-108.78 -104.63,-101.51 -134.97,-96.52 -266,-139.11 -51.73,-16.81 -102.81,-33.79 -151.48,-51.31 -48.56,-17.49 -98.17,-40.58 -148.89,-54.61 -95.29,-26.37 -264.52,52.3 -342.49,63.66 14.39,-34.65 65.57,-70.59 100.16,-85.8 -160.23,-32.69 -502.82,-6.49 -676.07,29.98 -54.67,11.51 -148.97,50.49 -192.93,53.66 15.75,-31.54 32.33,-39.32 62.66,-60.35 17.35,-12.02 49.44,-38.93 67.77,-38.18 -98.69,3.07 -298.4,89.27 -391.87,139.06 -41.71,22.22 -81.54,55.73 -120.56,68.38 5.95,-30.67 8.87,-35.65 32.3,-49.33 -55.8,20.81 -116.51,55.71 -167.07,88.96 -10.67,7.01 -14.36,11 -23.76,17.92 -27.56,20.26 -2.42,8.98 -38.46,22 67.75,-231.05 586.93,-334.58 807.61,-363.14 31.66,-4.1 46.2,-0.82 72.32,-15.26 -229.89,-3.9 -472.38,52.44 -655.55,143.85 -89.45,44.65 -158.39,109.8 -237.42,160.81 -60.34,38.96 -146.43,147.72 -161.04,247.82 61.28,-9.71 142.84,-82.24 257.31,-63.58 -38.04,1.24 -147.1,48.43 -177.54,63.64 -186.92,93.36 -321.2,257.93 -231.44,504.79 111.61,306.9 4.76,313.26 -108.15,555.25 -22.36,47.94 -55.19,121.08 -50.53,178.11 2.79,34.16 3.36,19.44 6.34,25.66 28.82,-20.76 18.63,-12.36 39.2,-42.05 15.29,-22.06 22.12,-29.12 36.37,-47.84 18.62,-24.46 18.9,-30.2 32.83,-51.02 48.36,-72.33 30.1,25.69 63.89,-163.68 7.98,76.52 14.52,134.37 47.47,189.78 18.46,31.03 29.52,43.14 58.8,62.6 28.87,19.19 56.37,24.7 77.52,39.73 -27.95,-29.31 -133.11,9.67 -205.42,-123.54 -25.53,15.6 -10.51,1.35 -25.3,23.97 -4.29,6.57 -5.28,18.22 -6.83,25.85 -22.72,-3.1 9.21,-2.85 -14.83,-10.25 -4.68,-1.44 17.6,-31.53 -17.38,2.05 -0.98,0.94 -2.62,3.17 -3.47,4.46l-5.02 12.49c-31.75,98.07 10.95,316.25 83.03,375.73 53.81,-64.58 203.7,-222.56 281.28,-245.87 -29.92,87.42 -118.74,138.36 -160.44,183.44 -16.35,17.68 -11.28,15.66 -33.4,35.01 -83.45,72.99 -61.18,100.05 39.56,132.2 32.51,-43.89 129.38,-326.06 274.58,-486.75 -114.53,40.33 -254.46,20.78 -277.61,-84.94 102.37,23.87 76.37,72.58 222.92,21.19 -47.08,-32.23 -81.72,-20.82 -135.94,-75.45 75.98,15.03 114.06,34.48 197.92,8.84 59.04,-18.04 121.5,-57.31 150.5,-95.19 -68.21,14.12 -83.7,27.01 -161.75,15.18 119.33,-39.33 184.18,-47.63 254.63,-131.75 -146.4,78.2 -262.43,140.36 -425.65,18.31 -59.91,-44.8 -35.82,-74.86 -92.81,-109.94 7.58,120.21 94.98,249.47 159.27,245.97 -85.58,-20.04 -95.98,-65.41 -155.55,-96.55 -3.29,-1.72 -6.32,-2.62 -9.18,-4 -3,-1.44 -6.4,-2.9 -9.75,-3.91 5.14,39.23 15.41,78.62 33.87,103.79 4.85,-22.9 1.72,-4.92 -14.38,-27.94 -11.16,-15.95 -17.05,-25.43 -21.98,-46.42 -6.49,-27.6 -17.87,-95.52 -19.16,-122.57 -38.36,37.96 -9.35,96.14 -11.02,144.69 0.29,-1.05 -0.21,-4.05 -0.29,-3.26 -0.9,9.29 -21.09,-93 -19.16,-149.67 6.93,-202.84 -13.51,-308.94 117.15,-463.33 -32.71,24.09 -47.04,54.28 -83.1,74.66 1.56,-55.07 15.58,-101.41 57.74,-122.5 28.25,-14.13 92.96,-41.3 133.15,-52.44 145.61,-40.37 211.74,-2.39 343.36,5.57 257.05,15.55 324.1,-222.54 171.58,-415.29 109.39,37.63 171.42,226.32 112.9,355 0.52,0.23 1.4,-1.35 1.51,-0.8 0.13,0.65 1.69,-0.65 1.89,-0.67 0.27,-0.02 2.23,-0.46 2.58,-0.47l12.42 0.95c0.79,0.09 3.58,0.25 5.17,0.99 -10.6,55.8 -38.1,68.36 -83.71,93.13 7.58,158.42 9.33,234.91 -42.71,388.79 -16.13,47.71 -33.59,71.44 -45.88,125.49 108.21,-21.31 145.35,-34.05 265.81,-24.19 -2.17,1.05 -5.53,-0.33 -6.83,2.39 -1.31,2.75 -5.13,1.79 -7,2.17 -88.05,17.81 -160.25,4.32 -252.35,44.95 -37.59,16.59 -59.92,47.98 -83.24,80.66 -11.35,15.91 -18.14,27.63 -30.85,45.06 -2.64,3.61 -17.84,22.27 -18.43,23.18 -19.25,29.54 -6.6,-1.45 -18.27,39.59 55.6,-5.37 84.65,-21.76 141.21,-31.13 50.84,-8.42 94.27,-8.89 145.5,-15.69 100.67,-13.37 187.74,31.29 268.92,50.45 -18.02,14.3 -38.67,11.71 -66.5,5.78 -67.13,-14.31 -143.07,-32.05 -210.97,-34.71 -90.14,-3.52 -249.44,20.52 -322.74,74.16 -43.64,31.94 -80.27,82.97 -111.14,127.83 -42.16,61.25 -107.4,132.43 -122.21,212.78l79.69 -33.87z"/>
   <path class="fil2" d="M1580.85 6277.18c70.84,-14.61 133.29,-18.01 152.18,53.46 -143.29,-35.64 -139.4,119.72 -98.53,221.8 142.14,355.04 590.46,348.3 705.11,132.28 -172.73,90.29 -191.58,116.55 -406.12,41.13 1.81,-1.04 4.97,-4.13 5.88,-2.19 0.88,1.89 4.6,-1.67 5.85,-1.8 17.63,-1.86 -2.72,-3.16 18.34,-0.52 7.06,0.89 23.36,6.56 33.18,9.05 72.02,18.24 155.54,6.89 217.87,-23.54 99.74,-48.69 105.36,-125.81 239.9,-51.8 127.95,70.38 252.3,-80.38 340.94,-145.95 54.61,-40.38 64.68,-26.45 118.98,-51.33 -83.97,-43.27 -124.86,2.97 -193.38,27.22 -45.36,16.06 -64.95,11.53 -107.04,19.58 -51.55,9.86 6.41,9.75 -30.47,12.29 -18.42,1.27 -22.35,-7.72 -36.47,-20.71 -0.45,-34.76 7.29,-52.87 18.09,-83.02 17.35,47.45 6.09,43.09 56.52,55.44 13.88,-19.35 22.7,-50.28 34.92,-72.72 108.43,-199.16 364.24,-245.25 584.82,-232.07 -68.19,-76.37 -225.23,-125.63 -331.79,-128.08 -68.82,-1.57 -140.91,12.21 -195.27,36.81 -112.15,50.75 -170.71,128.81 -261.07,196.03 -89.48,66.56 -200.06,131.78 -322.42,135.16 -102.74,2.85 -110.2,-21.42 -185.28,-43.9 12.43,43.49 49.02,53.44 84.96,76.3 -134.27,-15.55 -221.52,-241.37 -162.4,-314.73l5.58 20.22c4.33,38.14 -2.03,88.89 14.72,122.06 18.42,-118.87 18.06,-109.08 84.34,-179.3 238.47,-252.63 -51.73,-605.7 -367.1,-587.75 -99.94,5.69 -169.21,4.13 -210.13,-68.65 -39.2,-69.72 -27.34,-169.75 18.79,-223.73 69.1,-80.88 87.91,-58.64 197.14,-64.77 20.49,-85.76 -33.13,-111.07 -109.66,-118.76 14.06,-120.09 -143.04,-21 -169.15,-15.73 6.37,-77.37 154.88,-113.9 205.03,-40.62 28.06,41 -8.62,12.58 32.72,34.05 44.05,22.89 45.72,41.43 80.46,60.41 31.42,-56.33 77,-105.2 44.48,-202.17 -18.98,-56.6 -79.55,-118.84 -150.37,-130.28 -63.81,-10.31 -48.27,18.75 -99.79,34.41 -74.99,22.79 -42.09,-10.9 -80.16,55.58 -41.79,73 -110.15,89.82 -192.04,87.33 -12.63,83.29 16.67,139.38 90.88,163.54l31.08 12.49c-154.87,23.38 -193.81,-151.9 -133.5,-196.06 36.29,-26.57 190.18,41.55 203.48,-179.25l26.65 38.31c134.46,-16.11 153.84,-187.86 -65.32,-199.62l-4.33 42.45c-32.78,-37.37 -61.31,-45.91 -42.12,-134.24 34.05,-156.75 290.08,-226.4 351.56,-79.69 -41.35,-17.58 -62.82,-54.05 -118.57,-52.98 -53.31,1.03 -97.44,17.94 -133.92,37.64 25.84,13.45 52.39,4.05 86.98,27.48 82.76,56.03 66.52,171.16 140.11,232.42 40.48,33.69 120.01,60.31 179.84,19.85 45.48,-30.77 89.85,-84.45 81.18,-163.05 -50.55,10.99 -57.61,51.7 -119.74,66.41 -74.01,17.53 -111.72,-17.65 -110.83,-86.44l39.5 42.78c56.34,33.89 116.85,-35.23 158.8,-64.98 68.83,-48.81 174.43,-69.74 252.7,-18.98 -67.21,-11.07 -90.25,-22.8 -155.25,5.27 214.28,24.53 286.56,146.21 440.39,228.25 68.98,36.79 164.29,77.43 257.58,77.05 94.29,-0.38 208.06,-41.29 227.99,-111.81 -49.53,36.34 -127.63,68.48 -215.77,52.94 -66.53,-11.73 -92.35,-41.8 -124.12,-87.03 -6.42,-9.14 -8.99,-11.78 -15.05,-19.28 -1.64,-2.02 -6.66,-7.86 -8.25,-9.87 -9.12,-11.52 -3.47,-2.13 -12.23,-16.39 75.19,9.24 97.49,51.55 192.31,36.66 75.01,-11.77 120.4,-43.56 152.7,-83.59 97.52,-120.87 57.66,-179.18 274.67,-201.19 -26.83,-16.22 -66.22,-13.9 -93.35,-30.14 104.29,-2.06 288.04,101.91 306.09,-74.47 -87.31,70.09 -47.8,72.48 -187.02,16.33 -66.77,-26.92 -163.69,-28.85 -220.56,13.59 -99.83,74.5 -58.77,226.05 -319.62,230.83 -118.58,2.17 -212.5,-44.01 -293.42,-113.2 -51.18,-43.76 -83.03,-95.29 -133.85,-136.98 -24.26,-19.91 -50.29,-39.89 -80.62,-55.09 -77.84,-38.98 -140.97,-52.93 -239.01,-40.62 23.68,12 51.18,11.38 83.35,18.45 28.66,6.3 56.54,23.57 74.49,26.44 -85.24,-3.12 -100.55,-14.25 -185.55,9.2 -14.7,54.53 6.27,16.64 -35.89,69.18 25.95,-99.84 6.47,-162.15 -78.64,-193.12 -26.76,15.96 -6.79,0.82 -25.4,32.01 -1.14,-1.55 -2.72,-6.22 -3.18,-4.82 -0.44,1.35 -2.65,-3.83 -3.26,-4.46 -2.78,-2.84 7.37,-11.98 -21.91,-8.94 4.74,-7.24 8.54,-15.06 15.92,-25.79 17.34,-25.22 45.73,-36.44 70.93,-55.79 131.31,-100.82 37.62,-166.63 48.47,-252.94 7.48,-59.53 50.53,-57.35 95.27,-84.94 -71.44,-32.98 -168.41,28.39 -197.3,64.52 -64.44,80.56 18.48,127.03 -47.32,214.84 -26.77,35.74 -113.06,95.63 -185.98,96.76 -37.3,0.58 -86.29,-12.15 -127.29,-13.52 -55.76,-1.85 -78.86,17.46 -124.31,14.86 78.64,-60.12 127.36,-37.52 229.13,-28.75 -1.94,-1.46 -5.08,-5.72 -6.18,-3.86l-25.17 -12.15c-81.93,-29.73 -182.48,-19.58 -259.02,14.79 -323.76,145.39 -187.69,596.64 51.08,650.5 -29.87,-57.18 -102.57,-68.07 -97.43,-176.86 3.64,-77.02 45.09,-160.53 104.03,-177.01 -100.3,136.14 -67.84,224.48 40.33,349.58 26.59,30.75 32.77,88.5 27.78,140.95 -23.37,-57.53 -13.36,-50.49 -50.25,-93.34 -176.19,-20.73 -305.09,178.28 -260.87,362.81 22.34,93.24 68.91,147.51 139.46,182.4 69.24,34.25 78.57,4.84 126.31,-7.34 38.8,-9.91 92.18,14.21 99.52,65.29 -15.11,-11.51 -57.36,-47.81 -81.5,-38.21 -52.05,46.74 -49.03,161.34 -18.46,226.81 31.37,67.2 80.85,115.3 153.22,142.78 64.8,24.62 129.9,12.38 194.55,-0.41 43.45,-8.59 20.64,-8.24 56.26,10.88 72.62,38.98 124.85,59.74 139.92,155.43 -31.98,-46.05 -77.63,-139.23 -156.73,-118.1 -31.08,8.29 -52.33,48.19 -54.51,92.99l9.49 117.08c52.07,-24.2 13.05,-109.5 77.75,-131.78 -0.78,38.22 -10.37,61.57 -20.26,96.22l-29.05 82.33c-21.08,39.94 79.27,63.61 92.68,73.82 -152.62,31.48 -114.6,-101.05 -166.79,-124.34 -122.19,-54.54 -224.07,107.76 -159.79,210.98 27.48,44.15 45.37,22.63 43.98,63.05 -23.34,-4.13 -33.8,-13.44 -49.22,-22.53 4.35,32.89 25.53,71.71 39.56,103.7 16.85,38.4 32.63,64.59 84.74,55.23 -18.46,-22.72 -35.5,-27.7 -32.71,-66.06 4.6,-63.2 78.64,-75.63 115.32,-39.46 -36.07,-27.88 -107.05,-5.19 -89.81,54.04 17.23,59.24 97.3,1.28 120.04,70.77z"/>
   <path class="fil3" d="M3977.11 1691.32c96.1,5.57 254.23,48.92 348.93,70.98l246.44 65.82c40.49,13.25 44.44,33.32 75.15,20.74l14.45 -59.87c-52.55,-37.3 -130.24,-4.47 -189.48,-147.98 -36.18,-87.66 -22.1,-169.62 98.29,-186.43 -27.49,-47.66 -116.9,-135.45 -84.12,-189.94 51.57,-8.96 190.51,85.93 256.68,96.19 -3.24,-72.64 -26.93,-151.47 -60.38,-212.72 16.55,23.47 34.01,26.45 56.16,47.03 49.17,45.68 88.77,106.78 125.76,151.51l42.64 35.6c-14.48,-55.38 -42.68,-76.16 -8.42,-118.45 30.88,16 39.09,52.82 41.78,98.72 3.94,67.33 6.66,43.97 38.88,91.62 34.21,50.59 60.68,120.98 85.34,180.21 18.97,-244.41 -69.08,-351.69 -158.33,-509.45 42.11,7.07 36.65,15.91 72.17,30.82 32.51,13.66 31.4,-1.69 69.06,17.51 34.46,17.56 79.44,51.57 106.73,80.83 36.61,39.27 59.65,61.7 99.99,102.9 24.59,25.12 96.27,89.68 124.63,97.94 -0.41,-128.34 -101.77,-138.21 -103.52,-192.12 -94.72,-122.42 -351.89,-270.02 -582.48,-316.35 12.69,28.93 2.17,11.9 23.14,34.81 27.04,29.54 54.62,49.39 84.83,91.98 30.09,42.41 57.35,87.95 76.8,145.43 -35.4,-20.43 -97.33,-143.01 -182.31,-217.3 -19.68,-17.2 -31.94,-27.76 -54.71,-47.09 -19.88,-16.89 -33.88,-25.4 -71.67,-31.51 -61.02,-9.87 -122.13,-18.67 -183.26,-27.04 -163.83,-22.43 -195.46,-56.71 -338.23,24.37 -74.31,42.19 -170.92,122.81 -222.7,187.1 13.63,-48.78 121.96,-159.95 163.81,-202l34.89 -34.92c-140.26,13.06 -754.16,253.48 -910.35,368.68l-44.45 44.59 54.69 26.65 -3.53 75.35c158.93,19.48 319.57,71.19 456.17,126.22 68.68,27.67 130.59,58.22 199.14,88.47 57.02,25.17 152.67,86.9 201.39,91.1z"/>
   <path class="fil4" d="M2721.05 4057.71c267.1,-72.94 600.83,39.17 777.35,215.43 38.53,38.48 142.53,132.8 155.74,197.89 -33.33,-27.57 -37.49,-39.13 -68.42,-73.41 -65.21,-72.28 -155.53,-161.69 -244.38,-203.17 -1.81,2.05 -3.81,2.79 -4.61,6.78 -0.82,4.11 -33.05,63.92 -77.2,86.63 -54.71,28.14 -95.77,16.75 -155.22,15.21 -61.98,-1.6 -104.1,10.8 -149.46,36.34 -26.62,14.98 -28.26,16.56 -42.33,43.49l-33.15 71.34c125.22,-0.5 235.79,48.33 322.9,98.22 78.23,44.79 193.93,125.95 224.82,198.81 -49.29,-27.96 -118.76,-106.76 -241.64,-165.34 -112.46,-53.62 -181.46,-67 -309.81,-102.83 10.46,30.71 3.47,32.34 38.64,44.79l187.17 67.22c66.71,28.66 171.2,98.73 205.36,139.92 -39.33,-32.38 -94.41,-58.19 -150.84,-68.24 38.06,45.86 70.94,54.81 98.91,111.47 29,58.75 -6.64,105.36 -25.05,149.61l-90.01 -44.79c8.69,-41.96 13.53,-39.07 6.51,-89.85 -77.91,3.45 4.2,71.77 -168.69,49.75 -77.5,-9.88 -150.95,-9.47 -220.5,11.14 28.31,15.36 152.03,19.49 201.71,35.73 64.24,21.01 111.93,48.47 161.36,71.49 -116.28,-45.62 -231.14,-63.91 -370.84,-54.27 -106.64,7.35 -283.97,39.08 -323.76,118.29 88.19,-32.82 119.13,-59.32 227.81,-72.3 96.49,-11.53 196.48,-15.7 293.84,-2.03 156.35,21.96 336.21,117.71 394.93,208.05 -91.12,-36.18 -196.93,-132.09 -321.52,-146.27 9.4,28.9 -6.94,11.71 68.06,41.93 25.57,10.3 52.75,17.93 74.87,34.5 -93.27,-16.06 -196.7,-65.24 -305.36,-49.47 65.12,53.63 326.49,22.16 287.9,279.51 -0.87,5.77 -5.79,29.41 -8.09,34.79 -13.06,30.54 -1.79,12.53 -18.34,23.65 -32.83,-75.79 -6.43,-187.58 -84.11,-220.92 23.41,98.29 17.8,113.22 -1.85,211.5 -77.51,-3.01 -155,-31.44 -247.76,-28.41 2.07,2 5.3,1.69 6.67,5.49l141.28 48.37c-84.5,-7.75 -341.52,-47.31 -388.5,30.39 89.13,-45.91 396.86,-10.46 547.8,58.55 51.27,23.44 42.11,16.33 57.72,40.41 -65.28,-13.65 -125.45,-57.27 -263.87,-67.79l-109.75 4.03c20.77,20.16 28.17,19.59 64.27,23.91 65.76,7.85 139.25,24.63 196.25,55.63 43.7,23.77 60.43,47.75 55.96,110.3 -6.97,97.55 -46.26,34.78 -64.85,98.33 -8.76,-100.93 17.24,-177.79 -84.39,-202.75 17.62,27.88 36.78,51.58 31.27,104.01 -3.59,34.17 -14.19,84.62 -27.71,115.23 -92.22,-5.15 -125.92,-14.15 -225.59,-3.39 32.76,17.17 104.27,19.91 145.39,40.27 -52.33,-2.89 -85.2,-14.55 -140.72,-10.6l-113.88 13.18c-30.77,10.77 -19.98,-11.55 -18.95,18.04 80.94,-15.26 261.81,-10.43 340.78,22.4 48.87,20.31 71.04,-0.83 89.03,50.7l-167.59 -44.79c14.17,24.5 8.25,24.2 34.42,20.81 -35.73,-1.56 -69.31,3.26 -90.58,15.49l-38.4 41.3c-9.06,19.76 -2.98,0.52 -12.01,35.3 51.04,-8.31 88.74,-66.46 175.88,-34.81l-65.39 2.88c-21.54,7.17 -5.16,-1.38 -18.44,10.27 78.31,2.01 125.25,-5.43 133.12,75.43 100.11,25.68 163.01,28.83 254.65,100.09 74.54,57.95 19.48,45.54 69.15,46.5 11.2,-18.87 46.77,-131.32 -16.71,-175.63l-140.04 -102.01c80.22,14.57 118.84,50.5 182.15,82.38 12.06,-11.37 2.11,3.68 14.34,-17.14l42.06 -153.58c9.67,-41.25 46.39,-151.19 48.43,-181.47 -29.57,-15.83 -61.75,-18.58 -89.7,-32.19 -61.83,-30.11 -89.14,-53.48 -135.14,-101.89 -24.76,-26.06 -37.05,-54.89 -19.53,-97.8 28.58,-54.92 181.22,-9.52 292.15,-64.45 -23.86,-45.46 -68.37,-45.93 -92.54,-178.38 -14.24,-78.02 -4.87,-164.2 29.97,-222.38 14.56,-24.31 44.47,-54.86 61.69,-74.27 29.21,-32.94 44.44,-41.06 72,-63.69 29.63,-24.34 48.48,-33.93 88.31,-47.42 128.76,-43.6 111.97,23.15 169.91,-243.83 11.12,-51.23 24.32,-220.03 32.5,-242.59 29.8,58.69 18.93,187.79 11.71,260.79 -21.49,217.09 -52.9,204.25 15.71,221.32 32.76,-37.96 53.36,-79.81 88.49,-108.31 127.63,-103.52 369.27,-125.71 429.93,-13.29 -107.11,-39.82 -235.35,-47.37 -344.41,-3.87 -47.22,18.84 -172.56,109.62 -136.02,160.13 26.75,36.97 45.06,4.78 61.82,-14.07 50.29,-56.59 164.58,-156.24 255.9,-153.56 118.63,3.47 198.78,107.18 278.73,45.95l25.87 -30.89c-13.6,-62.11 -43.83,-128.76 -75.49,-181.71 -0.96,-1.61 -2.22,-3.75 -3.21,-5.32 -26.41,-41.95 -54.45,-84.02 -111.27,-101.5l37.04 57.55c9.66,16.65 25.92,44.02 34.08,59.74 11.25,21.66 34.05,83.15 32.62,111.05l-9.37 34.12c-13.37,-30.02 -19.55,-33.58 -49.43,-51.16 -18.81,-11.07 -36.71,-23.32 -62.78,-30.97 -131.33,-38.52 -234.78,27.22 -359.82,96.88 -33.23,18.52 -32.03,25.72 -58.82,32.73 -15.93,-31.57 2.94,-72.14 20.86,-99.38 -7.27,-8.09 -22.19,17.17 -6.68,-31.66 -15.71,-19.95 -16.14,-41.14 -12.5,-73.49 9.38,-83.38 14.47,-147.83 6.76,-234.47 -12.16,-136.54 -85.1,-310.98 -168.02,-424.29 -77.05,-105.31 -73.81,-80.49 -138.99,-149.87 -32.71,-34.82 -23.44,-23.28 -71.12,-49.47 43.44,57.04 57.28,62.69 81.45,90.39 91.33,104.64 191.89,451.37 118.91,592.53 -21.94,-37.11 -0.52,-41.02 -41.59,-136.71 -20.86,-48.61 -35.79,-76.19 -70.18,-101.35 7.84,30.24 20.8,48.5 29.17,83.82 18.59,78.43 40.53,220.54 6.4,293.15 -31.44,-42.57 -19.29,-71.39 -106.44,-184.99 -6.37,-8.31 -7.3,-11.56 -13.57,-20.51l-72.56 -64.08c-1.31,-1.05 -3.35,-2.79 -4.64,-3.73l-22.97 -9.72c12.16,-5.08 -3.01,-9.99 13.84,3.9 21.94,18.09 -3.78,-3.89 13.93,17.71 26.09,31.81 57.71,68.96 74.2,107.08 -21.03,0.83 -78.82,-48.8 -102.86,-68.61 -158.12,-130.27 -577.84,-241.64 -712.49,-110.88z"/>
   <path class="fil5" d="M5194.84 7114.54c-86.01,15.83 -48.87,-8.34 -121.84,37.77 -181.17,114.47 -542.12,311.34 -734.98,341.04 -2.43,62.67 2.13,125.6 3.47,188.3 1.43,66.63 -1.87,102.62 -69.84,108.56 -146.83,12.84 -92.97,-140.48 -105.69,-247.6 -65.61,-2.84 -22.91,13.07 -84.51,117.1 -56.88,96.06 -88.56,139.39 -172.68,149.3 -39.33,4.63 -120.95,71.24 -207.79,104.74 -110.8,42.75 -254.87,22.25 -365.69,-14.99 -104.62,-35.16 -291.39,-183.3 -370.93,-263.58 -34.77,-35.1 -60.49,-77.33 -97.39,-114.37 -47.67,-47.85 -39.48,-77.25 -89.23,-122.42 -75.22,-68.28 -107.05,-184.71 -143.13,-279.75 -12.86,-33.87 -41.39,-128.88 -57.24,-155.13l-218.16 -206.83c-66.49,52.35 -92.13,84.54 -200.07,115.43 -89.55,25.62 -189.57,21.47 -277.85,-8.66 -96.67,-33 -137.67,-64.74 -190.94,-121.81 -80.52,-86.25 -67.36,-99.4 -99.34,-171.41 -32.88,-74.07 -87.74,14.68 -167.07,-146.14 -103.87,-20.45 -136.08,-31.87 -180.38,-107.74 -36.98,-63.32 -32.44,-161.48 10.12,-214.43 47.64,-59.25 27.66,-18.8 22.42,-105.27 -7.18,-118.69 62.83,-215.21 218.26,-203.59l5.47 -126.57c-238.26,1.51 -390.26,-143.93 -351.63,-390.47 -155.91,-33.64 -245.22,-114.16 -263.9,-286.6 -27.41,-252.88 160.83,-334.81 184.46,-364.4 -20.2,-23.5 -56.55,-52.48 -76.3,-72.44 -71.19,-71.96 -126.54,-221.41 -109.34,-337.56 23.91,-161.38 137.11,-287.07 287.08,-316 -14.81,-55.16 -38.88,-103.19 -54.27,-164.54 -14.95,-59.57 -14.59,-123.47 -26.27,-175.11 -28.21,16.79 -31.13,40.73 -67.88,56.83 -36.72,-141.67 -10.2,-252.51 8.65,-389.89 -31.57,18.1 -48.52,46.81 -81.84,49.74 -30.64,-122.4 33.23,-245.14 53.74,-353.72l-92.1 24.87c4.4,-56.81 122.4,-253.6 161.86,-320.61 21.2,-36.01 47.36,-62.29 62.88,-103.82l-88.1 20.98c28.16,-128.94 368.87,-384.23 469.91,-414.22 -4.33,-95.68 1.44,-151.04 43.74,-225.38 26.37,-46.35 84.13,-109.35 121.33,-140.72 81.86,-69.05 222.09,-138.11 343.75,-189.64 126.48,-53.57 260.47,-95.08 399.49,-134.58 65.35,-18.56 427.49,-81.02 442.64,-90.52 20.77,-43.9 -14.18,-81.28 -11.17,-136.86 53.89,-3.25 70.09,16.83 120.72,21.87 26.51,-19.72 35.99,-35.07 64.84,-57.4 118.43,-91.63 414.45,-203.26 551.46,-261.05 246.07,-103.78 455.9,-182.36 755.3,-112.36 12.37,-1.7 89.7,-131.07 270.68,-46.8 150.28,69.97 47.12,98.85 159.85,119.84l358.91 89.91c149.85,44.95 220.35,94.89 260.42,105.93 184.59,-190.76 316.35,-58.74 342.73,-49.6 35.06,12.14 35.53,1.42 68.23,25.38 40.26,29.5 52.42,57.58 79.12,105.98 116.13,4.49 173.45,21.46 210.52,112.13 18.03,44.1 17.89,95.86 -7.03,133.05 -30.73,45.87 -57.25,28.66 -113.33,30.38 2.92,63.67 18.41,59.32 -10.13,125.63 -16.82,39.05 -21.02,84.3 5.63,117.82 60.76,-81.64 38.72,-123.9 132.07,-183.6 87.05,-55.67 164.67,-34.47 274.68,-38.06 272.78,-8.91 314.44,300.76 314.49,300.83 10.66,13.36 50.93,26.9 68.12,35.15 89.74,43.03 390.87,194.57 405.38,265.36l-81.39 12.27c6.37,12.75 100.74,105.69 122.26,130.93 108.92,127.78 237.76,372.09 246.47,542.22 -48.53,-5.04 -80.97,-60.33 -139.67,-75.84l6.89 232.23c28.32,-10.62 39.98,-28.71 79.08,-40.87 36.44,-11.33 73.47,-13.96 111.91,-12.06 77.22,3.82 139.56,35.16 176.54,75.58 139.66,152.68 -49.66,346.59 -118.61,235.89 -22.65,-44.57 10.19,-44.22 10.64,-96.38 -115.19,-92.1 -200.08,99.37 -77.33,240.34 67.91,77.99 157.4,162.63 151.48,329.38 -5.24,147.83 -83.59,249.81 -174.23,306.45 -179.74,112.31 -324.73,38.41 -398.27,31.34 -28.09,101.43 -182.22,420.49 -246.92,461.92 -20.66,-16.23 -20.05,-31.21 -33.86,-51.18 -78.32,60.18 -71.59,193.21 -169.64,151.23 9.68,29.93 44.53,60.22 63.96,86.53 104.6,141.6 84.05,201.6 92.75,364.65l40.99 8.38c11.37,-267.2 -28.25,-260.42 -115.51,-419.48 25.01,-40.53 47.58,-48.07 69.28,-104.37 102.34,7.93 80.61,23.7 200.03,-180.1 41.21,-70.33 122.76,-259.43 131.4,-271.5 146.56,33.22 244.88,36.56 372.81,-36.29 226.24,-128.83 271.24,-437.27 115.12,-623.48 -30.83,-36.78 -79.35,-80.22 -104.64,-124.04 -28.66,-49.66 -36.28,-151.46 37.61,-148.38 -2.6,46.8 -15.42,86.93 18.83,117.26 84.89,75.14 256.49,-22.57 220.29,-194.4 -35.78,-169.82 -217.85,-228.19 -413.29,-179.42l-0.43 -83.34c40.91,24.71 59,54.27 120.41,34.83 61.22,-120.39 -158.82,-551.27 -306.89,-668.92 24.97,-41 126.55,-66.16 -149.93,-225.48 -50.93,-29.35 -98.81,-52.01 -149.7,-78.69 -33.26,-17.45 -137.68,-62.07 -149.37,-87.73 -19.41,-42.62 -9.65,-81.88 -69.48,-158.39 -30.7,-39.27 -78.87,-85.19 -128.43,-109.29 -99.78,-48.52 -293.4,-47.86 -402.1,-14.94 18.21,-91.24 49.62,-127.13 -15.62,-218.34 -51.82,-72.47 -87.36,-89.1 -202.31,-95.68 -83.23,-103.46 -14.81,-68.51 -153.13,-133.57 -57.8,-27.19 -98.2,-77.93 -236.56,-36.24 -70.55,21.26 -84.94,51.73 -130.38,73.16 -41.75,-13.07 -81.51,-36.76 -124.53,-54.14 -105.56,-42.66 -317.89,-96.24 -430.27,-118.93 -116.2,-23.47 -50.99,-6.08 -108.12,-70.16 -48.35,-54.23 -183.8,-100.32 -272.96,-82.36 -72.25,14.54 -78.1,41.9 -122.46,66.54 -159.76,-15.78 -253.35,-45.15 -419.55,0.32 -126.69,34.66 -224.3,72.28 -338.24,118.17 -213.64,86.06 -472.96,179.32 -604.97,316.37 -47.02,-9.13 -199.4,-91.38 -136.79,120.34 -40.25,23.02 -166.72,29.74 -220.48,40.24 -319.58,62.43 -915.02,242.55 -1083.69,526.3 -47.81,80.42 -44.7,111.54 -53.93,217.16 -103.13,69.78 -437.84,283.94 -465.44,422.6 -10.33,51.84 16.44,50.1 36.67,80.76 -32.89,35.46 -90.84,147.14 -116.81,195.53 -28.62,53.35 -130.52,184.31 2.62,189.88 -4.73,66.05 -20.25,125.25 -24.73,191.77 -9.71,144.2 16.18,115.91 62.95,150.82 -2.34,53.83 -24.81,292.24 41.17,322.52 16.1,7.39 6.81,1.6 19.49,5.67 2.42,0.78 4.73,1.26 7.12,2.06 41.23,13.7 15.9,12.95 42.94,109.69 11.2,40.08 25.63,66.67 34.42,101.96 -288.59,123.83 -341.14,430.03 -183.71,666.17 22.92,34.38 54.14,55.01 66.73,87.33 -57.43,74.62 -181.26,144.27 -144.69,397.07 23.75,164.24 113.63,240.74 252.66,287.95 -10.32,169.4 58.8,297.17 201.16,359.28 48.87,21.32 105.67,22.82 147.66,39.43 5.61,73.53 -10.18,24.9 -100.32,70.31 -90.83,45.75 -118.73,134.83 -111.73,234.98 5.26,75.25 -27.74,58.62 -50.9,127.79 -36.19,108.06 16.82,204.85 71.77,256.22 45.88,42.89 53.5,33.9 113.25,56.6 51.36,19.51 24.48,70.91 143.62,118.2 68.76,27.29 11.4,26.04 107.23,155.41 138.59,187.08 411.32,250.24 618.84,154.21 41.26,-19.1 76.03,-51.15 112.95,-66.25 29.87,17.97 72.51,67.3 101.37,95.18 38.45,37.13 77.53,49.63 96.47,107.01 28.88,87.56 67.87,217.82 109.83,295.25 30.4,56.09 45.62,74.1 86.32,117.75 51.99,55.78 102.05,181.32 283.95,325.72 60.06,47.68 157.43,129.69 236.26,162.13 83.79,34.5 243.53,71.84 347.16,59.22 113.87,-13.87 229.39,-107.98 283.47,-121.63 88.11,-22.22 80.91,-11.94 135.45,-69.79 22.5,-23.86 69.22,-101.37 86.14,-112.5 5.32,57.77 1.8,100.73 46.33,133.26 34.24,25.01 92.97,33.25 140.09,14.9 104.97,-40.86 64.93,-170.6 67.77,-295.02 192.15,-49.27 705.17,-299.19 815.02,-413.16z"/>
   <path class="fil6" d="M5090.03 3832.54c16.26,-20.12 2.21,-7.52 7.75,-29.11 7.33,-28.54 -1.97,-18.66 13.1,-31.76 16.78,103.89 -9.03,124.78 -58.45,177.21 -12.52,13.29 -19.05,16.91 -30.01,28.8 -19.58,21.24 -7.65,16.69 -32.81,34.45 -21.65,15.28 -62.95,31.94 -94.27,40.22 -77.86,20.56 -161.69,13.81 -239.39,0.45 -87.28,-15.01 -133.13,-17.42 -201.37,-58.68 -152.95,-92.49 -274.2,-34.71 -365.23,58.22 -82.08,83.79 -151.97,224.96 -116.41,382.13l32.7 15.32 13.05 -40.95c-3.27,-106.53 77.97,-215.52 132.84,-248.8 -24.26,21.49 -27.5,17.87 -39.94,52.05 404.79,-259.64 372.63,134.12 812.93,153.07 78.79,3.39 170.04,-13.58 239.11,-42.47 196.11,-82.05 271.38,-300.94 141.32,-458.86 -26.94,-32.72 -38.6,-50.27 -57.49,-86.18l-16.53 45.16c-16.16,-113.96 -18.47,-190.96 48.56,-265.17 170.07,-188.31 402.81,18.73 467.52,42.04 155.43,55.99 89.55,-22.24 278.5,-0.65 128.27,14.65 126.7,47.37 239.75,-37.76 178.7,-134.58 149.64,-271.71 163.31,-503.22 3.59,-60.71 26.17,-61.65 65.63,-89.01 44.56,-30.89 57.92,-34.85 123.78,-32.82 -30.06,-23.21 -119.27,-2.17 -160.2,-2.16 15.57,-19.71 38.88,-37.26 65.21,-39.82 -62.82,-4.44 -111.13,-2.04 -149.41,47.29 -78.28,100.86 -19.29,188.35 -28.69,266.65 -6.08,-48.06 -12.76,-71.58 -23.58,-116.33 -9.47,-39.18 -3.79,-81.48 -15.86,-120.58l-3.47 45.54c-17.9,119.81 10.21,249.52 -81.65,346.81l-34.36 33.37c-9.14,9.71 -4.41,6.95 -17.86,16.39 -3.44,2.41 -11.55,6.7 -16.23,9.27 -97.67,53.65 -188.94,68.75 -299.38,45.87 -63.45,-13.14 -121.42,-31.67 -180.95,-63.71 -228.76,-123.14 -293.22,-170.41 -524.38,-42.22 59.02,-90.9 57.16,-95.67 170.43,-130.99l35.61 -16.02c-53.5,-1.84 -93.37,6.09 -137.47,25.31 -49.08,21.4 -97.93,58.48 -123.03,96.01 -8.84,13.22 -16.81,33.65 -23.18,52.72 -9.61,28.79 -17.93,79.7 -26.39,114.46 -55.63,-68.06 -3.2,-267.06 219.34,-316.81 -152.93,-7.31 -260.92,82.34 -273.1,245.09 -5.79,77.23 7.38,144.41 46.16,209.57 65.93,110.77 36.19,122.72 54.49,190.61z"/>
   <path class="fil7" d="M5090.03 3832.54c-18.3,-67.89 11.44,-79.84 -54.49,-190.61 -38.78,-65.16 -51.95,-132.34 -46.16,-209.57 12.18,-162.75 120.17,-252.4 273.1,-245.09 -222.54,49.75 -274.97,248.75 -219.34,316.81 8.46,-34.76 16.78,-85.67 26.39,-114.46 6.37,-19.07 14.34,-39.5 23.18,-52.72 25.1,-37.53 73.95,-74.61 123.03,-96.01 44.1,-19.22 83.97,-27.15 137.47,-25.31l-35.61 16.02c-113.27,35.32 -111.41,40.09 -170.43,130.99 231.16,-128.19 295.62,-80.92 524.38,42.22 59.53,32.04 117.5,50.57 180.95,63.71 110.44,22.88 201.71,7.78 299.38,-45.87 4.68,-2.57 12.79,-6.86 16.23,-9.27 13.45,-9.44 8.72,-6.68 17.86,-16.39l34.36 -33.37c91.86,-97.29 63.75,-227 81.65,-346.81l3.47 -45.54c12.07,39.1 6.39,81.4 15.86,120.58 10.82,44.75 17.5,68.27 23.58,116.33 9.4,-78.3 -49.59,-165.79 28.69,-266.65 38.28,-49.33 86.59,-51.73 149.41,-47.29 -26.33,2.56 -49.64,20.11 -65.21,39.82 40.93,-0.01 130.14,-21.05 160.2,2.16l44.78 5.43c-56.03,42.13 -150.75,-27.96 -203.54,90.74 137.93,-87.46 182.74,9.9 305.81,-14.55 78.49,-15.6 166.85,-110.09 160.9,-199.21l-82.04 12c7.9,-0.12 23.29,-17.77 44.04,-26.7 46.72,-20.12 123.46,-21.46 164.71,-89.26 60.38,-99.25 -0.82,-181.34 -85.18,-211.44 2.82,117.45 -27.16,154.92 -96.33,207.55 -83.56,63.59 -142.79,42.55 -254.57,43.81 -20.93,-127.68 -264.36,-84.16 -303.31,18.56l91.47 -3.14c-32.69,45.34 -112.25,12.78 -143.54,75.64 -29.19,58.65 -10.32,137.12 -15.67,205.71 -1.54,-1.48 -3.76,-6.06 -4.33,-4.73l-13.81 -21.29c-25.02,-58.37 -34.58,-197.41 17.16,-263.67 45.41,-58.14 148.99,-105.04 240.99,-115.04 -18.81,-67.27 -106.24,-74.94 -190.35,-61.25 -11.94,-25.14 -46.28,-88.85 -65.72,-120.08 -30.68,-49.31 -32.75,-39.75 -76.34,-67.88l-25.94 -21.88c-1.3,-1.33 -3.45,-3.75 -5.01,-5.76 62.94,7.46 97.85,34.19 126.18,76.6 54.77,82.02 21.65,110.78 86.25,99.13 6.29,-32.91 -35.05,-114.83 -53.83,-140.24 -203.32,-275.07 -601.37,24.06 -487.52,293.06 40.13,94.82 131.86,142.99 212.93,195.58 -5.43,-41.8 -63.53,-126.85 -9.44,-227.26 36.14,-67.09 152.04,-101.28 201.76,-37.97 -68.95,-10.37 -96.69,-2.55 -135.64,35.88 -120.57,118.97 27.56,302.04 47.29,377.19 -17.63,8.12 8.54,6.14 -13.46,-2.93 -31.94,-13.16 8.87,-8.49 -9.65,-5.53 -0.39,104.76 -11.12,150.06 -70.28,211.56 -43.41,45.13 -97.35,86.14 -181.31,99.66l32.3 14.06c32.73,7.02 100.29,-1.45 133.25,-3.62 -62.94,41.04 -174.08,25.05 -244.83,-1.42 -185.78,-69.49 -336.4,-336.81 -626.24,-224.92 -207.27,80.01 -341.62,369.12 -143.88,554.3 102.81,96.28 65.82,147.24 97.07,196.08l6.92 -46.45z"/>
   <path class="fil4" d="M2926.15 6668.83l17.54 2.11c-33.88,5.88 -100.68,24.08 -119.71,51.86 60.13,-5.03 118.51,-30.99 183.65,-18.1 49.25,9.75 92.11,86.9 63.54,116.78l-36.95 -93.38 -63.41 -1.97c1.61,2.59 3.72,5.42 5.29,7.47 28.09,36.65 48.61,42.82 54,96.29l-1.48 25.33c-0.09,-1.13 -0.68,4.1 -1.4,6.41l-162.41 40.86c2.05,1.45 5.03,2.64 6.8,3.23 1.75,0.59 4.7,2.24 6.88,2.83l36.38 1.76c28.53,-2.39 18.01,-11.12 42.74,1.45 41.14,-4.19 102.71,-18.16 135.84,-0.74 -29.74,15.34 -38.24,0.08 -62.56,21.82 33.47,5.44 16.14,4.1 23.8,-4.12l-72.28 29.71c-12.44,8.82 -7.58,4.94 -16.84,14.31 37.34,-4.72 90.58,-23.34 126.82,-14.53 33.76,8.21 50.23,55.13 37.29,89.36 -58.92,-17.01 8.54,-73.03 -91.25,-64.87 10.28,42.35 31.11,76.27 50.02,109.79 -18.62,32.72 -84.09,51.56 -116.46,82.78 12.14,18.92 3.93,1.86 4.46,28.2 54.76,-26.86 106.75,-70.39 170.35,-71.94 -34.63,34.31 -82.44,26.58 -123.31,77.55 0.54,0.62 1.26,1.78 1.42,2.02l11.63 16.76c33.92,-18.54 74.16,-40.79 118.54,-49.28 29.9,15.18 78.89,63.67 52.51,105.68 -17.19,-61.63 -37.94,-105.01 -112.84,-69.22 35.22,37.72 67.32,-0.62 83.66,124.05 28.86,-5.8 23.96,-11.84 30.61,-4.74 -19.7,22.8 -19.78,29.86 -44.53,50.63 2.75,21.6 15.23,24.53 16.03,27.23 -11.5,20.5 -12.36,22.14 -26.36,39.57 -19.87,24.74 -17.71,17.39 -28.44,48.01 55.23,-13.36 97.66,-63.51 112.79,-108.41 9.72,21.5 -11.07,22.34 15.17,50.09 9.9,-18.91 17.96,-33.97 36.86,-44.56 150.86,103.65 14.21,162.54 -12.03,218.4 30.26,-2.61 71.8,-10.93 75.21,-29.44 29.3,-16.01 43.47,-58.26 61.77,-80.5 -35.78,103.24 -55.6,128.21 -147.93,176.06 -44.49,23.06 -67.56,22.69 -61.64,50.81 24.71,36.8 147.81,102.63 212.3,108.53 84.07,7.68 149.23,-77.59 174.46,-147.92 -11.55,44.01 -38.63,86.39 -66.72,114.17 -32.51,32.14 -18.77,4.15 -30.09,51.82 237.39,3.09 223.45,-20.28 281.5,-171.66 -8.61,48.86 -18.87,52.34 -21.12,104.33 51.23,-12.96 61.05,-16.13 100.13,-42.55 26.29,-17.77 58.12,-42.92 46.17,-83.45l12.2 58.44c58.22,-2.52 51.7,-43.82 82.04,-91.11 96.43,-150.29 21.19,-116.45 -31.72,-182.2 58.57,8.59 41.64,23.77 95.9,36.07 66.25,-301.85 -137.13,-137.81 -180.7,-182.53 -41.18,-33.06 40.22,-92.98 11.36,-181.31 -100.37,-24.62 -145.71,40.49 -200.93,121.7 -29.14,42.86 -30.88,87.98 -19.11,137.12 61.64,-12.44 33.47,-24.19 41.03,-95.24l24.24 24.98c21.15,-50.98 27.83,-95.53 78.48,-103.05 15.18,65.72 -11.7,100.07 -6.04,156.61 40.93,-8.34 69.46,-15.92 103.94,3.23 -20.89,23.2 -83,22.11 -113.25,27.83 2.27,2.2 5.96,1.51 7.68,5.57 1.64,3.89 5.29,3.96 7.56,5.02 55.89,25.93 80.21,-10.82 106.34,61.35 -100.03,-24.38 -104.51,-25.79 -207.65,-32 24.47,64.06 25.26,27.13 61.21,65.98 14.44,15.59 29.7,51.3 14.95,75.06 -27.01,-30.62 -25.29,-59.48 -56.72,-84.79 -34.33,-27.64 -69.56,-39.31 -126.84,-39.31 37.22,75.19 56.65,31 64.09,100.66 -27.38,-16.63 -37.32,-50.85 -71.1,-62.96l-8.65 79.45c-16.7,-23.89 -7.91,-76.36 -18.16,-109.82 -8.24,-26.92 -38.92,-67.54 -62.02,-81.52 -7.34,9.13 -4.77,2.81 -11.32,20.18 -14.46,38.35 0.67,50.93 -34.1,72.91 0.15,-111.33 63.11,-69.46 -30.28,-196.04 -28.1,-38.08 -5.81,-33.02 -59.73,-43 -21.51,42.01 -14.18,60.66 -63.05,78.26 18.77,-49.45 49.63,-65.04 45.01,-127.39 -3.49,-47.04 -28.39,-91.87 -34.99,-141.76l-89.6 24.01c21.23,-26.98 50.54,-35.99 79.07,-49.31l-12.22 -113.27 -80.92 4.9c36.97,-41.93 102.78,-5.47 56.81,-174.05 -7.34,-26.91 -4.9,-22.55 -19.21,-34.81 -28.43,-24.34 -85.07,-31.36 -119.08,-68.69 41.77,4.83 86.42,35.02 125.08,24 4.58,-51.97 27.31,-197.75 -13.91,-226.69l-130.31 -78.07 67.65 14.06c-11.06,-22.81 -94.63,-96.98 -120.66,-116.31 -36.31,-26.97 -17.06,-15.67 -39.04,-44.57 -67.11,-5.26 -195.22,48.31 -224.93,72.89 -36.04,29.83 -5.57,-2.72 -26.83,33.01 52.8,0.49 82.78,-10.85 119.99,18.15 -50.87,0.46 -131.11,-12.35 -171.59,14.51 -28.84,19.15 -63.07,86.14 -66.93,137.52 78.7,-3.12 113.66,-40.85 174.13,-49.85 55.18,-8.21 119.41,23.22 122.16,58.4 -112.54,-18.44 -122.34,21.95 -200.98,78.26 -37.96,27.17 -39.56,41.57 -76.36,67.23 -29.35,20.45 -52.75,47.1 -103.62,49.24 7.63,58.32 11.01,74.12 50.51,98.88l53.18 -44.31c38.42,-31.1 61.93,-49.19 121.62,-73.04 74.69,-29.84 201.25,-46.59 268.1,-7.21 -23.95,0.65 -46.72,0.17 -70.55,0.24 -9.09,0.03 -25.3,-0.16 -33.77,0.96l-33.86 10.85z"/>
   <path class="fil2" d="M5974.48 1755.33c-161.01,5.19 -354.32,96.84 -445.04,177.29 22.7,28.26 48.95,35.76 61.37,79.63 12.88,45.5 9.81,100.46 -13.85,131.27 -0.49,-82.11 1.02,-149.03 -63.22,-182.52 -68.18,-35.54 -138.72,9.85 -174.02,47.82l14.74 9.7c7.23,3.53 16.56,6.44 24.56,9.49 40.82,15.56 73.61,40.87 83.46,86.59 -108.13,-136.8 -406.18,-104.25 -378.27,182.09 -0.77,0.47 -2.44,-1.39 -2.66,-0.5 -7.21,29.55 7.95,-2.6 -18.41,-0.33 -0.69,0.06 -3.36,-0.01 -4.72,0.83 -25.92,136.85 60.06,180.77 152.79,219.47l-20.03 -42.29c32.23,17.31 85.56,106.7 91.75,161.16 8.75,77.02 -28.6,148.48 -65.9,191.1 -32.97,37.68 -82.51,81.9 -152.25,100.98 -72.11,19.72 -175.23,25.85 -236.91,-3.33 137.08,1.6 273.84,-3.17 371.62,-115.28 12.24,-14.05 17.75,-22.57 25.99,-41.68 -50.03,63.36 -157.03,97.93 -250.2,95.18 -111.48,-3.3 -218.2,-47.94 -321.76,-44.82 -105.83,3.18 -211.99,63.31 -254.87,113.33 -33.55,39.13 -124.24,176.62 -83.64,261.23 38.52,-56.53 38.13,-120.6 140.77,-187.24 247.92,-160.99 511.3,126.54 817.26,-71.56 179.3,-116.1 211.43,-342.62 118.78,-443.06 -53.97,-58.5 -148.32,-69.95 -168.76,-160.98 -33.86,-150.77 154.67,-154.52 160.37,-157.51 -182.93,16.88 -164.63,186 -76.62,227.71 -58.24,-131.09 8.98,-241.38 169.35,-210.72 -8.69,5.62 5.54,0.95 -17.36,8.11 -53.14,16.62 -126.48,2.13 -149.34,78.69 -22.99,76.95 43.26,138.97 80.82,168.99 14.74,-29.62 10.64,-54.63 35.62,-94.79 68.94,-110.8 227.39,-16.96 256.97,-158.16 19.22,-91.76 -33.89,-138.79 27.82,-225.95 28.63,-40.44 96.18,-102.65 171.19,-93.31 -4.12,-1.59 -4.69,-2.14 -15.91,2.47 -0.43,0.17 -19.38,10.59 -21.42,11.76 -20.18,11.58 -32.5,18.93 -48.11,29.71 -159.87,110.26 -24.55,220.51 -117.62,339.09 -21.35,27.2 -46.4,45.31 -87.56,57.38 -62.02,18.2 -54.88,22.11 -85.54,65.9 -48.6,69.44 -73.07,98.31 -50.48,149.89 15.21,34.74 9.34,19.44 16.24,59.87l115.33 -154.13c20.78,-23.36 17.51,-30.05 41.55,-51.8 70.17,-63.45 111.76,-139.88 185.05,-187.7 -18.28,33.31 -31.37,32.05 -48.78,73.97 24.41,-19.4 53.87,-33.96 78.65,-60.59 62.91,-67.62 90.13,-139.04 264.6,-183.08 89.9,-22.7 159.92,-15.96 226.58,-70.26 64.98,-52.93 100.66,-103.02 91.59,-195.05 -41.61,-9.45 -90.56,-21.78 -137.99,-30.98 -117.46,-22.81 -80.96,101.15 -220.07,98.82 -60.76,-1.01 -69.14,-30.62 -93.51,-71.9z"/>
   <path class="fil3" d="M6361.01 5832.27c-5.86,74.18 11.44,67.82 18.3,75.37 11.62,-64.63 81.12,-405.97 94.74,-428.23 -1.37,1.71 -36.33,326.16 -44.13,379.67 33.7,-52.34 45.15,-126.27 51.43,-183.85 135.79,-15.42 147.9,-51.82 197.94,-82.79 70.9,-43.9 18.46,-17.56 57.39,-61.44 37.02,-41.72 38,-2.91 68.28,-58.62 0.94,-1.72 1.9,-4.03 2.84,-5.74 0.92,-1.68 2.04,-3.9 2.99,-5.55l44.18 -68.16c-19.63,15.88 -0.45,14.85 -36.95,67.28 -35.17,50.51 -43.88,85.67 -99.12,138.07 -37.79,35.86 -36,27.89 -58.56,76.56 51.61,-16.84 163.81,-137 167.81,-145.61l-41.03 61.83c-21.44,34.21 -6.94,37.81 11.64,63.72 -67.49,68.62 -66.24,56.43 -51.16,71.31 58.6,-31.28 157.06,-183.95 197.86,-183.06 28.69,35.22 -14.25,2.75 5.23,38.85l15.08 23.44c18.42,54.92 -2.09,9.96 31.53,44.17 -6.08,65.36 -35.48,142.31 -29.08,204.39l5.51 32.22c8.81,-40.3 20.71,-87.57 35.96,-125.88l98.23 -370.77c-5.76,10.02 -47.43,277.43 -48.53,319.26 21.8,-18.63 20.61,-12.23 28.13,-61.49l5.68 39.22 39.32 -107.26c5.2,11.56 21.17,23 30.92,32.56 43.17,42.31 15.52,33.22 50.08,41.84 46.65,-43.17 149.31,-16.02 206.46,-48.61 24.44,-13.94 45.09,-62.78 61.75,-91.02 28.45,-48.23 -14.59,-31.27 43.9,-48.43 -10.52,-29.22 -9.5,-12.99 -12.44,-29.68l47.62 -11.09c-40.79,-75.02 -214.36,-24.87 -288.7,-15.43l31.71 -156.06c55.64,-28.05 205.95,-28.76 267.13,-48.13 52.54,-16.64 31.61,-21.88 24.03,-50.86 49.82,-18.65 56.14,-23.23 51.19,-68.62l46.36 -21.46c-0.78,-5.92 -5.57,-14.75 -5.7,-16.13 -2.08,-21.23 18,-8.2 42.8,-33.57 -39.15,-44.02 -118.55,-24.74 -178.31,-19.75 -99.8,8.34 -464.75,42.47 -527.52,104.41 3.19,30.34 -7.7,15.77 25.35,32.24 -8.53,17.96 -10.74,17.52 -16.98,35.5l27.4 23.63c-12.45,14.25 -25.57,21.36 -15.65,48.3 7.08,19.24 8.61,12.73 15.82,18.89 1.97,1.68 8.53,5.81 10.56,7.32l15.82 11.92c-10.72,50.11 -22.35,95.82 -34.02,147.76 -12.35,54.97 -2.87,68.96 -101.89,91.37 33.43,-78.33 103.98,-152.7 69.6,-267.76 -67.07,-224.48 -297.63,-196.32 -477.6,-149.11 -43.69,11.46 -90.06,23.37 -132.31,37.13 -109.46,35.65 -14.64,72.87 -14.64,72.88l-27.75 32.4c3.16,3.24 6.05,3.11 6.74,6.19 1.83,8.16 11.67,-3.05 19.71,37.76 10.32,52.34 9.7,49.62 48.51,67.58 -13.05,140.11 -83.74,345.8 -81.46,479.12z"/>
   <path class="fil8" d="M1942.1 3616.5c-15.29,-74.14 8.94,-149.88 31.54,-209.23 -54.55,29.58 -61.7,46.56 -93.22,78.65l-96.61 91.46 35.7 -172.83 -84.93 102.2c6.34,-119.47 83.08,-208.29 110.51,-278.56 -49.51,16.77 -118.19,69.8 -152.06,96 -57.08,44.17 -94.78,108.17 -121.22,124.97 -9.88,-19.19 -7.78,-33.76 -3.56,-61.43 3.24,-21.25 7.45,-43.93 12.04,-64.87 19.31,-88.03 90.53,-277.26 139.46,-311.34 -96.38,61.71 -203.07,122.93 -273.14,217.62 -29.73,40.16 -24.03,30.58 -50.94,41.17 9.68,-144.45 60.77,-256.48 96.59,-381.51 -63.95,32.72 -147.43,151.44 -198.45,204.14l65.81 -215.45c-39.03,22.1 -35.66,27.12 -66.58,54.6 -36.26,32.23 -40.9,46.97 -74.05,62.66 3.75,-105.11 76.31,-338.88 177.88,-404.99 56.82,-52.4 187.96,-154.16 289.43,-170.29 -93.22,-13.85 -185.33,26.04 -257.45,54.23 44.13,-64.68 133.45,-97.92 208.44,-119.79l39.25 -18.22c-67.68,-30.6 -73.69,-63.67 -110.99,-129.56 -72.34,6.05 -246.78,136.72 -297.41,201.78l102.26 -14.92c-16.05,15.85 -18.78,3.5 -51.37,39.69 -73.8,81.98 -19.66,6.04 -115.59,139.86 -34.98,48.8 -114.61,167.65 -130.96,232.11 49.95,-10.77 79.55,-36.91 109.91,-42.34 -0.01,0 0.21,-19.8 -23.89,17.96 -52.75,82.65 -104.9,239.13 -119.24,329.18 43.15,-12.39 93.03,-58.45 149.21,-93.35 -19.34,44.3 -46.99,64.55 -72.57,182.09 -13.38,61.48 -34.91,167.96 -30.8,230.31 17.52,-12.15 5.02,0.94 23.16,-20.69 3.32,-3.96 11.29,-17.47 13.68,-21.65 33.08,-57.62 74.52,-102.53 82.93,-117.84 -42.59,106.77 -41,147.38 -37.32,264.39l57.13 252.27 67.47 -109.47c20.57,-28.85 10.49,-24.91 34.13,-41.82 0.12,18.57 -13.74,74.89 -17.4,110.6 -5.65,55.13 2.67,102.6 1.33,152.55 47.73,8.26 63.57,5.59 110.91,22.67 67.23,24.25 125.19,42.86 188.67,-44.06 52.8,-72.29 -47.65,-194.06 120.04,-269.9 86.81,-39.26 137.34,-17.5 212.27,10.95z"/>
   <path class="fil9" d="M5275.94 1262.78c1.75,53.91 103.11,63.78 103.52,192.12 -28.36,-8.26 -100.04,-72.82 -124.63,-97.94 -40.34,-41.2 -63.38,-63.63 -99.99,-102.9 -27.29,-29.26 -72.27,-63.27 -106.73,-80.83 -37.66,-19.2 -36.55,-3.85 -69.06,-17.51 -35.52,-14.91 -30.06,-23.75 -72.17,-30.82 89.25,157.76 177.3,265.04 158.33,509.45 -24.66,-59.23 -51.13,-129.62 -85.34,-180.21 -32.22,-47.65 -34.94,-24.29 -38.88,-91.62 -2.69,-45.9 -10.9,-82.72 -41.78,-98.72 -34.26,42.29 -6.06,63.07 8.42,118.45l-42.64 -35.6c-36.99,-44.73 -76.59,-105.83 -125.76,-151.51 -22.15,-20.58 -39.61,-23.56 -56.16,-47.03 33.45,61.25 57.14,140.08 60.38,212.72 -66.17,-10.26 -205.11,-105.15 -256.68,-96.19 -32.78,54.49 56.63,142.28 84.12,189.94 -120.39,16.81 -134.47,98.77 -98.29,186.43 59.24,143.51 136.93,110.68 189.48,147.98l-14.45 59.87c-30.71,12.58 -34.66,-7.49 -75.15,-20.74l-246.44 -65.82c-94.7,-22.06 -252.83,-65.41 -348.93,-70.98 19.24,24.97 79.7,52.92 111.58,69.89l795.56 462.85 13.7 -37.05c-38.55,-40.31 -509.22,-317.82 -589,-352.42 127.4,38.33 463.09,208.04 505.59,216.41 31.88,-38.3 21.65,-70.63 40.86,-109.24 36.51,123.9 0.21,135.07 43.81,161.09 24.61,-33.59 43.24,-194.43 9.24,-238.84l-151.05 -132.72c60.03,20.89 98.41,59.06 151.73,83.93 7.62,-51.36 11.98,-35.91 -16.7,-69.69 32.26,-11.44 24.03,36.56 39.8,-34.31 16.85,-75.75 7.87,-154.76 3.81,-222.1l7.1 -42.57c63.71,204.46 6.74,289.37 8.83,408.92 71.99,44.5 141.23,137.53 184.61,161.95 -5.2,-66.87 -116.79,-181.35 -150.24,-208.63 82.08,48.65 171.82,139.6 190.75,146.48 41.07,-67.62 39.55,-192.62 26.05,-283.54 -15.44,-104.04 -64.45,-180.38 -79.12,-250.25 8.33,15 46.89,47.3 64.31,69.81l172.15 251.11c-14.86,-149.77 -141.61,-302.85 -222.31,-412.75 -32.17,-43.81 -75.51,-76.13 -103.77,-117.17 74.51,36.51 241.84,191.37 279.87,272.16l7.56 -30.64c0.2,-0.81 0.49,-3.29 1.24,-4.74 26.11,37.75 94.36,122.22 126.47,144.58 39.49,-81.12 54.52,-161.33 16.21,-244.08 -27.47,35.14 7.6,17.64 -24.67,33.34 -58.24,-50.71 -74.07,-114.53 -62.07,-212.48 -80.7,-70.29 -285.8,-141.67 -413.41,-162.9 10.68,13.26 -5.93,0.31 19.18,18.63l156.15 89.24c41.58,28.25 129.66,94.2 135.01,147.19z"/>
   <path class="fil3" d="M5544.09 6355.42c11.14,28.29 13.22,7.25 15.52,18.72 -26.35,-0.35 -6.3,4.14 -23.17,-15.13l-46.71 -37.81c-58.71,-44.68 46.08,13.58 -14.79,-12.38 -55.65,39.5 -96.53,150.57 -143.93,203.62l-72.5 -154.36c-60.57,-9.44 -61.86,14.9 -105.3,30.6l-8.47 -28.13c-88.2,-11.08 -333.23,24.72 -412.65,53.72 -9.93,38.3 -2.99,9.76 -0.02,33.15 0.68,5.35 5.32,20.82 7.25,30.13 0.26,1.24 0.73,3.76 0.96,5.02 0.24,1.3 0.51,3.87 0.74,5.2 0.24,1.36 0.4,3.98 0.66,5.36 7.49,40.65 41.15,31.41 2.29,144.1 -15.07,43.71 -32.27,17.26 -64.34,53.65 11.69,74.34 49.94,24.25 30.91,133.22 -7.99,45.75 -19.13,108.43 -22.43,156.01 31.82,18.2 22.8,20.37 50.23,47.78 31.05,-0.24 199.12,-36.07 240.4,-46.74 56.24,-14.55 41.44,-45.09 52.02,-59l35.49 -48.91c0.61,-0.97 2.38,-3.14 2.92,-4.05 9.29,-15.71 13.79,-6.11 3.95,-14.13 -36.17,-30.04 -186.43,7.16 -239.89,10.79 12.22,-136.76 10.12,-114.43 102.09,-129.68 80.89,-13.4 41.8,-16.75 94.51,-91.1 18.32,-25.84 20.07,-27.56 17.93,-43.08l-158.66 8.01c4.74,-28.68 8.13,-74.94 22.63,-93.15 33.35,-26.31 116.57,-20.81 165.28,-30.48l19.36 -30.56c46.65,-53.8 6.12,-33.72 39.91,-52.94 5.88,7.67 1.06,-2.16 9.44,16.15l19.45 55.85c33.04,90.33 91.19,162.36 56.5,216.52 -39.15,61.12 -136.92,197.76 -151.52,261.96 17.51,34.54 5.97,0.41 24.68,24.16 8.91,11.31 9.58,20.89 15.51,33.86 19.38,-5.46 21.02,-8.05 34.4,-17.1l25.4 28.09c38.19,-43.7 94.57,-201.65 135.47,-223.15 46.63,56.9 66.21,189.82 118.53,242.53l14.44 -23.63c30.92,-40.17 18.96,-4.67 35.96,-55.46 6.62,1.06 32.38,2.98 35.09,4.05l24.58 21.13 55.32 -22c51.29,-18.76 6.47,-0.98 61.59,-5.16l31.12 -225.78c54.33,1.78 19.19,32.24 86.54,-21.02 283.25,-223.97 206,-407.79 28.27,-416.68 -80.2,-4.01 -192.61,21.91 -252.96,58.23z"/>
   <path class="fil4" d="M4525.59 4240.52c12.55,39.03 7.37,46.1 27.52,67.03 6.38,3.39 3.4,-0.27 15.51,12.68 140.56,150.43 136.03,307.12 141.56,478.43l21.3 -28.53c43.57,-76.48 50.39,-209.13 54.81,-294 19.55,20.92 21.18,39.59 24.22,68.94 15.17,146.28 -25.2,314.36 -109.06,432.36l-42.49 55.07c130.53,-20.75 174.64,-69.59 232.48,-93 -10.3,21.56 -15.18,17.59 -31.84,34.89l-27.95 34.98c-1,1.35 -2.85,3.86 -4.25,5.82 97.32,-5.76 270.06,-115.36 312.76,-157.19l81.16 -80.31c22.61,-17.1 9.48,-0.21 29.59,-20.84 21.5,-22.08 28.61,-65.33 72.29,-91.79 -18.22,41.79 -33.88,64.27 -50.1,110.77 38.81,-15.05 7.91,2.47 34.68,-22.23l112.39 -184.67c17.74,-42.43 35.62,-86.03 44.89,-125.93 12.06,-51.97 12.3,-95.54 25.79,-141.54l10.6 129.58c78.21,-77.28 55.73,-370.36 34.33,-481.72 -35.71,-185.83 -137.11,-291.46 -120.38,-433.76 -64.63,9.6 -133.39,67.46 -154.36,116.46 -60.44,141.24 121.57,204.2 136.19,384.05 7.47,91.81 -20.08,154.57 -64.37,212.84 -84.65,111.35 -242.65,165.51 -391.32,164.83 -186.74,-0.87 -304.41,-70.16 -415.95,-153.22z"/>
   <path class="fil7" d="M5873.43 4145.71c-59.25,-46.69 -50.89,-153.14 -32.71,-206.01 27.82,-80.89 61.74,-116.74 116.77,-152.37 186,-120.42 272.91,34.41 412.72,15.1 81.62,-11.27 221.69,-148.29 344.13,-188.83 79.83,-26.43 147.02,-10.63 217.05,14.1 47.39,16.73 157.16,83.03 165.21,84.95 -42.54,-16.6 -127.98,-44.01 -176.97,-52.86 -52.74,-9.53 -131.42,-5.18 -178.89,22.44l-17.87 14.11c99.88,-0.9 133.9,11.42 225.72,25.02 89.71,13.29 111.54,31.65 179.06,64.03 134.99,64.74 281.76,55.2 362.36,-43.18 0.58,1.19 6.3,21.14 7.23,23.78l18.17 37.16c16.63,-9.65 18.56,-7.9 33.83,-36.26 6.42,-11.92 9.8,-21.5 14.17,-36.26 8.14,-27.43 13.53,-57.61 16.28,-87.35 2.73,-29.48 2.19,-72.8 -3.3,-101.76 -10.81,-56.96 -28.93,-57.62 -45.71,-65.12 21.77,78.9 -10.58,164.16 -51.79,198.3 -31.18,25.84 -130.39,50.8 -171.54,56 28.09,-2.26 65.45,-31.13 86.85,-47.39 84.31,-64.01 84.41,-126.4 87.11,-209.07 0.69,-21.37 6.19,-43.15 5.13,-59.93 -2.31,-36.47 -5.95,-20.57 -21.92,-55.21 -19.27,-10.97 -35.63,-30.48 -47.86,-44.15l44.69 17.46c-31.12,-65.7 -93.42,-112.47 -68.48,-226.1 19.84,-90.39 88.48,-128.6 188.25,-108.32 -33.44,-29.14 -40.71,-21.4 -82.26,-37.53 63.12,-5.5 88.7,5.77 110.43,46.42 36.76,68.75 12.26,76.7 2.82,124.42 147.48,23.57 96.67,-316.53 -201.01,-227.88 -44.36,13.21 -44.49,20.38 -57.3,41.73l66.34 2.77c-53.3,39.62 -96.69,17.02 -165.4,87.16 -33.85,34.55 -80.72,108.03 -47.68,179.49 56.3,121.79 232.15,128.57 202.08,307 -8.54,-59.45 -24.3,-110.72 -69.08,-123.75 33.54,216.05 -154.25,254.6 -323.57,176.99 -65.66,-30.09 -121.52,-68.69 -199.6,-87.81 -82.62,-20.24 -194.94,2.3 -233.56,51.98 47.46,0.07 98,-0.52 140.94,19.24 -24.5,10.61 -135.33,4.09 -180.88,18.53 -33.75,10.69 -87.36,63.18 -117.86,85.27 -108.81,78.83 -205.25,27.82 -313.47,-12.81 -112.79,-42.34 -244.01,-30.41 -319.83,40.03 -91.97,85.47 -70.93,165.51 -75.04,304.49 29.21,5.55 33.11,-15.95 43.73,-48.52 9.68,-29.66 21.6,-54.54 33.17,-73.83 -13.13,54.03 -23.11,103.52 -54.04,152.03 -36.44,-0.84 -85.11,-38.82 -116.35,47.46 -21.49,59.34 -7.53,126.09 41.17,144.49 79.52,30.04 100.78,-13.16 150.62,-21.89 69.41,-12.17 47.35,43.69 161.18,-6.59 -2.02,-1.49 -5.4,-5.5 -6.67,-3.48l-13.73 -5.99c-2.2,-0.7 -4.71,-1.47 -7.17,-2.16 -7.85,-2.2 -18.9,-3.19 -28.53,-5.52 -27.28,-6.63 -33.31,-12.34 -47.14,-24.02z"/>
   <path class="fil3" d="M4204.99 6299.66l34.37 -14.22c32.86,-7.45 94.17,-12.09 135.68,-2.86 3.64,13.69 6.71,29.75 10.63,47.23l20.98 51.64 541.68 -369.64c128.86,-91.24 144.49,-71.6 137.15,-147.97 -85.44,21.15 -166.43,65.71 -254.7,97.33 -81.39,29.15 -160.75,65.27 -240.25,98.59 -32.96,13.82 -438.48,201.13 -455.88,220.95 74.08,-99.52 36.24,-52.1 96.51,-105.45 7.08,-6.27 23.14,-22.32 29.63,-29.54l78.54 -74.11c13.74,-11.45 18.22,-14.91 29.37,-29.86 39.31,-52.66 22.12,-29.29 79.36,-73.3l144.97 -125.33c7.74,-6.34 6.72,-4.65 14.33,-10.99 13.28,-11.06 4.05,-3.98 13.26,-11.99l9.03 -7.98c1.41,-1.12 3.4,-2.63 4.86,-3.72l357 -252.4c25.74,-13.64 39.51,-27.33 68.52,-34.67 -9.42,-23.28 -8.72,-4.54 -3.63,-37.34 7.36,-58.72 -7.29,-121.32 -6.77,-181.94 0.66,-76.22 24.91,-98.88 51.21,-133.84 -72.94,50.16 -597.57,592.58 -674.56,668.7l-403.81 442.94c-47.52,50.4 -143.51,194.67 -205.15,217.47 -13.45,4.98 -23.07,5.63 -31.26,8.34l-33.63 16.61c25.08,7.27 86.53,22.57 106.97,31.8 -187.21,47.31 -296.42,-203.12 -289.57,94.44 21.66,14 228.05,99.94 284.14,81.35 96.8,-32.08 198.27,-71.89 291.1,-99.35l0.73 -125.93c-124.4,-78.68 -40.47,-166.44 59.19,-204.96z"/>
   <path class="fil1" d="M4961.58 3037.21c-31.59,80.78 -45.21,111.3 -83.42,178.39 -14.36,-15.93 -25.77,23.75 -1.94,-92.69 5.84,-28.52 12.24,-60.21 9.92,-92.39l-149.07 -27.89 21.15 36.62c13.07,27.25 15.86,31.77 18.94,65.72 -2.44,-1.23 -5.83,-6.05 -7.05,-4.16l-94.65 -78.94c119.45,310.7 -6.02,219.27 153.9,299.28 -15.92,13.2 -44.07,9.83 -66.9,3.21 -23.78,-6.89 -40.96,-14.93 -62.1,-23.85 3.94,110.36 -14.44,154.74 -66.5,229.94 -31.83,45.98 -95.93,111.89 -170.53,123.26 33.79,-18.13 89.87,-80.85 112.24,-113.64 32.84,-48.16 54.46,-125.62 39.23,-196.75 -11.79,55.8 -126.98,194.19 -242.81,225.24l35.59 5.43c2.77,0.92 5.02,2.03 7.56,3.02l15.2 7.86c-61.45,14.78 -92.66,38.32 -174.25,43.89 -108.27,7.4 -245.25,-33.08 -323.93,-102.24 -49.19,-43.23 -60.39,-71.5 -98.97,-121.17 39.09,160.64 216.87,253.51 388.65,259.18 97.22,3.21 114.84,-16.22 191.29,-28.11 -46.72,20.03 -100.82,39.76 -123.1,64.98 -1.77,2.01 -3.86,4.87 -5.46,7.52 83.78,43.57 210.54,4.6 283.5,-29.72 -83.28,78.76 -168.44,135.08 -295.24,137.84 -40.24,0.87 -100.81,-11.09 -125.71,-7.51 224.96,113.77 212.31,86.16 427.78,80.28 -28.44,44.55 -97.78,51.33 -155.85,53.32l89.18 49.44c47.61,24.22 62.39,25.62 116.11,35.36 142.86,25.89 419.08,36.39 422.92,-164.62 3.35,-175.18 -206.28,-158.55 -181.25,-423.9 21.65,-229.49 198.66,-372.61 388.57,-375.77 103.34,-1.72 87.07,13.47 142.21,26.49l-12.61 -206.26c-17.28,6.4 -54.23,66.79 -163.85,116.22 -80.02,36.08 -156.61,36.27 -258.75,37.12z"/>
   <path class="fil4" d="M1396.87 2589.76c-101.57,66.11 -174.13,299.88 -177.88,404.99 33.15,-15.69 37.79,-30.43 74.05,-62.66 30.92,-27.48 27.55,-32.5 66.58,-54.6l-65.81 215.45c51.02,-52.7 134.5,-171.42 198.45,-204.14 -35.82,125.03 -86.91,237.06 -96.59,381.51 26.91,-10.59 21.21,-1.01 50.94,-41.17 70.07,-94.69 176.76,-155.91 273.14,-217.62 -48.93,34.08 -120.15,223.31 -139.46,311.34 -4.59,20.94 -8.8,43.62 -12.04,64.87 -4.22,27.67 -6.32,42.24 3.56,61.43 26.44,-16.8 64.14,-80.8 121.22,-124.97 33.87,-26.2 102.55,-79.23 152.06,-96 -27.43,70.27 -104.17,159.09 -110.51,278.56l84.93 -102.2 -35.7 172.83 96.61 -91.46c31.52,-32.09 38.67,-49.07 93.22,-78.65 -22.6,59.35 -46.83,135.09 -31.54,209.23 26.33,24.86 11.82,8.84 -1.94,19.03 12.15,37.65 -66.13,280.41 -3.11,386.51 14.88,-21.76 43.54,-118.91 56.95,-152.93 17,-43.11 50.55,-118.39 77.35,-134.6 6.67,9.09 4.54,1.81 9.31,19.71 8.55,32.15 3.99,58.06 -5.16,86.53l109.61 -202.1c34.41,-51.72 99.3,-140.99 94.96,-221.56 -52.34,34.32 -109.82,156.43 -140.62,190.62 -1.8,-131.16 99.16,-188.75 69.33,-398.68 -96.92,2.27 -185.28,49.71 -251.39,108.25 -22.5,19.93 -27.82,37.27 -53.6,60.66 4.87,-122.1 146.1,-235.03 234.94,-302.32 -23.14,-16.69 -65.36,-16.07 -101.32,-15.23 -34.84,0.81 -68.59,6.79 -98.96,18.05 -90.3,33.48 -94.99,65.37 -146.78,101.4 7.37,-33.9 26.06,-63.89 45.14,-85.55 -58.8,17.35 -115.5,89.45 -152.9,135.5 -15.08,18.58 -27.17,38.68 -43.57,55.62 14.87,-136.38 164.54,-324.48 278.05,-404.95 20.47,-14.52 41.17,-22.79 58.74,-42.47 -193.21,0.8 -377.18,166.44 -503.17,300.92 -4.81,-118.8 106.8,-265.69 178.61,-338 127.16,-128.04 90.04,-74.68 171.33,-145.12 -182.41,36.84 -330.87,131.7 -427.13,290.49 0.44,-44.7 44.42,-121.96 64.76,-158.47 35.05,-62.91 72.44,-75.15 99.2,-122.8 -146.57,56.66 -207.47,157.58 -265.79,197.26 10.09,-61.23 73.89,-163.88 117.31,-216.81 20.63,-25.14 39.4,-37.28 55.81,-57.26 -30.05,10.65 -58.56,26.38 -84.95,38.22 6.71,-33.83 -2.59,-6.46 13.76,-36.66z"/>
   <path class="fil1" d="M6960.16 2807.99c-8.92,91.24 -49.33,147.77 -93.44,194.59 -61.2,64.96 -151.05,46.11 -239.39,33.82 12.45,69.39 24.2,119.1 26.75,195.8 -4.28,-44 -109.25,-173.13 -166.86,-184.36 -69.01,89.13 -16.65,187.63 -10.39,230.98 -12.12,8.68 -1.2,3.16 -18.33,7.74 -30.59,8.17 1.35,-4.31 -13.32,0.73 -5.63,39.47 -11.73,59.84 -19.73,96.61 -11.75,54.05 1.46,42.92 11.81,85.43l-20.12 -39.32c-31.83,24.87 -65.87,114.79 -160.86,172.95 -23.69,14.51 -50.7,24.04 -70.34,39.93 96.73,68.39 215.46,3.14 291.92,-55.37 28.77,-22.01 67.72,-77.31 144.97,-108.93 84.52,-34.59 184.4,-31.3 272.74,-4.68 44.23,13.33 163.78,98.11 232.8,103.45 36.15,-142.54 -2.7,-212.03 -32.36,-315.51 0.06,1.66 57.02,141.34 106.09,169.33 0,-34.47 2.3,-77.52 0.25,-110.97 -3.1,-50.59 -10.79,-42.25 -27.46,-79.53 -36.99,-82.68 -5.65,-101.56 -14.17,-171.92 -4.06,-33.54 -45.22,-101.87 -59.93,-145.3 -20.06,-59.19 -29.93,-109.55 -32.96,-173.02 -35.92,23.27 -57.55,44.98 -107.67,57.55z"/>
   <path class="fil3" d="M5403.42 5841.08c-17.51,-117.98 -36.62,-518.02 -68.08,-584.26 -41.09,-8.29 -27.52,0.5 -51.67,2.72 -26.43,2.44 -10.63,-6.68 -40.93,-12.39 -41.62,-7.84 -34.34,8.91 -44.2,11.57 -29.93,8.07 6.31,-15.7 -51.56,-5.66 -14.77,60.76 62.54,895.86 83.52,963.69 45.42,27.11 174.56,44.54 236.81,42.82 37.46,-160.6 125.21,-358.07 184.74,-508.89 32.62,-82.65 198.02,-436.54 192.8,-505.15 -28.11,-13.15 -15.33,-10.52 -45.82,-2.22l-7.17 -65.59c-40.79,11.12 -31.25,55.06 -78.93,21.15 -22.29,-15.84 -0.04,-12.04 -34.79,-23.8 -24.3,15.6 -30.72,41.63 -45.15,74.12l-229.57 591.89z"/>
   <path class="fil9" d="M2278.45 2588.85c-79.99,-14 -502.8,-250.88 -597.24,-409.9 -31.79,-53.53 -11.4,-62.35 -51.18,-75.8 -0.58,-0.19 -3,-0.28 -4.08,-1.19 -13.31,-222.85 318.07,-353.21 504.78,-423.02 423.01,-158.18 968.84,-259.92 1366.75,4.52 77.65,51.6 140.78,103.72 215.59,157.01 323.45,230.43 853.24,541.77 1287.78,569.98 -22.88,-51.72 -91.99,-45.15 -199.49,-74.97 -364.34,-101.05 -624.43,-249.48 -928.44,-460.48 -57.13,-39.66 -105.33,-76.82 -159.34,-119.97 -52.98,-42.34 -100.26,-84.29 -149.43,-124.43 19.55,18.51 105.27,69.4 134.87,88.5 293.09,189.17 567.85,373.92 909.08,487.01 59.69,19.78 126.85,34.69 177.87,52.49l-322.5 -212.77c-39.79,-23.85 -77.36,-43.72 -117.98,-68.13 -146.07,-87.78 -310.91,-175.95 -472.5,-255.94 -360.06,-178.25 -706.66,-334.99 -1165.87,-263.98 -222.33,34.39 -1246.69,277.3 -1095.25,705.3 23.68,66.93 123.58,150.14 177.43,187.27 94.53,65.18 392.33,227.42 489.15,238.5z"/>
   <path class="fil10" d="M5100.84 5168.25c37.82,-4.01 91.97,-22.84 135.94,-18.05 19.37,2.12 115.59,20.52 132.65,29.72 110.44,59.61 44.82,123.94 88.58,223.36 16.42,-14.08 6.84,-3.02 17.67,-23.85l109.39 -245.98c52.17,-82.95 77.07,-41.63 142.67,-46.56 68.01,-5.12 52.24,-52.18 143.13,25.62 70.66,-81.08 147.77,-145.36 221.06,-243.06 29.69,-39.57 180.08,-255.06 116.56,-333.83 -20.88,-22.46 -150.2,36.59 -179.23,84.62 -42.32,70 -75.12,110.85 -122.3,165.77 -50.88,59.22 -85.17,101.19 -141.49,146.5 -46.92,37.74 -109.72,96.27 -160.53,121.35 55.59,-71.94 106.07,-125.83 157.63,-208.79 40.33,-64.89 141.76,-210.2 67.97,-255.72 -10.77,8.87 -3.96,0.16 -12.3,14.69 -4.45,7.75 -4.91,9.37 -8.06,17.98l-24.41 76.65c-0.3,0.73 -7.83,17.41 -8.1,17.88 -16.19,27.99 -5.17,10.2 -16.43,21.63 3.67,-80.96 15.16,-130.49 -49.23,-164.45 -47.75,-11.63 -109.2,81.59 -163.74,133.05 -96.47,91.03 -193.1,202.96 -296.46,304.68l-135.42 127.02c-20.82,26.64 -7.72,1.36 -15.55,29.77z"/>
   <path class="fil10" d="M6361.01 5832.27l-44.89 275.07c-11.15,-46.07 -6.74,-62.28 -11.75,-93.97l-10.59 -33.94c-9.9,38.77 0.56,37.78 -15.7,28.25 -27.28,-15.99 -38.31,-286.17 -45.21,-343.49 -6.7,-55.57 -35.27,-220.95 -32.57,-256.88 -7.98,137.86 26.29,275.36 14.35,416.49 -6.49,-8.44 -5.74,-6.21 -12.29,-21.58l-37.99 -245.83 4.8 270.85c-42.7,-27.87 -1.92,5.79 -20.64,-19.61 -18.8,-25.49 -1.53,-23.59 -21.65,-51.2 -31.01,30.86 13.87,29.15 -37.47,52.06l-237.35 48.78c15.26,-87.78 42.05,-183.5 58.25,-278.87 0.44,29.74 -73.14,204.55 -101.74,220.93l13.55 -59.99c1.53,5.78 -4.74,63.48 -57.77,81.95 -53.84,18.74 -80.8,-3.05 -110.62,39.8l-1.03 -0.9 -24.69 5.97c19.26,22.34 15.1,19.56 41.69,27.13 -1.28,1.92 -3.82,2.24 -4.28,5.42 -3.96,27.46 -26.29,-17.41 3.26,47.77 20.6,45.41 2.83,64.86 -17.16,125.35 -10.56,31.94 -67.4,191.07 16.16,122.9l2.13 60.43c28.99,-13.97 9.06,-19.61 42.11,-34.53 16.72,-7.55 -3.47,13.06 42.42,-29.33 19.94,28.55 0.38,23.41 25.4,43.4 60.9,-36.86 74.81,-169.98 108.97,-246.55l190.75 -40.13 28.33 262.87c37.65,5.97 6.11,-11.69 31.61,-2.79 39.83,13.9 -26.34,-14.23 8.1,4.66 13.17,7.23 1.18,8.37 21.71,12.54 50.06,-97.04 34.36,-3.71 59.29,-83.44 11.48,11.9 12.48,13.87 25.38,22.17 28.07,-10.73 18.3,-28.54 49.23,-14.06 43.94,20.58 -2.31,14.82 60.83,25.82 15.57,-16.95 11.18,-8.32 17.88,-35.57 30.36,16.55 4.76,36.96 75.26,-16.88 48.29,23.54 -5.65,23.05 50.79,26.94 48.5,-77.65 30.03,-286.97 67.74,-365.36 33.98,13.69 46.5,43.03 89.37,13.87 27.01,-18.37 65.77,-48.64 82.62,-72.7 -15.08,-14.88 -16.33,-2.69 51.16,-71.31 -18.58,-25.91 -33.08,-29.51 -11.64,-63.72l41.03 -61.83c-4,8.61 -116.2,128.77 -167.81,145.61 22.56,-48.67 20.77,-40.7 58.56,-76.56 55.24,-52.4 63.95,-87.56 99.12,-138.07 36.5,-52.43 17.32,-51.4 36.95,-67.28l-44.18 68.16c-0.95,1.65 -2.07,3.87 -2.99,5.55 -0.94,1.71 -1.9,4.02 -2.84,5.74 -30.28,55.71 -31.26,16.9 -68.28,58.62 -38.93,43.88 13.51,17.54 -57.39,61.44 -50.04,30.97 -62.15,67.37 -197.94,82.79 -6.28,57.58 -17.73,131.51 -51.43,183.85 7.8,-53.51 42.76,-377.96 44.13,-379.67 -13.62,22.26 -83.12,363.6 -94.74,428.23 -6.86,-7.55 -24.16,-1.19 -18.3,-75.37z"/>
   <path class="fil8" d="M2545.44 5424.14c46.98,-77.7 304,-38.14 388.5,-30.39l-141.28 -48.37c-1.37,-3.8 -4.6,-3.49 -6.67,-5.49 92.76,-3.03 170.25,25.4 247.76,28.41 19.65,-98.28 25.26,-113.21 1.85,-211.5 77.68,33.34 51.28,145.13 84.11,220.92 16.55,-11.12 5.28,6.89 18.34,-23.65 2.3,-5.38 7.22,-29.02 8.09,-34.79 38.59,-257.35 -222.78,-225.88 -287.9,-279.51 108.66,-15.77 212.09,33.41 305.36,49.47 -22.12,-16.57 -49.3,-24.2 -74.87,-34.5 -75,-30.22 -58.66,-13.03 -68.06,-41.93 -162.26,-10.31 -297.13,-75.1 -535.46,24.57 -35.23,14.73 -71.26,36.77 -95.45,57.48 -53.03,45.4 -57.4,40.29 -62.51,102.88 -8.25,101.24 -18.15,213.75 -5,321.57 70.79,-27.3 134.32,-76.08 223.19,-95.17z"/>
   <path class="fil9" d="M4204.99 6299.66c76.61,-4.09 149.06,-1.18 158.72,71.32 9.82,73.71 -35.09,43.64 -36.37,124.45 -0.29,17.84 1.69,41.52 2.78,59.73 27.59,-8.52 287.43,-127.31 305.44,-153.65 30.99,-45.34 13.82,-55.05 81.57,-79.64 103.58,-37.59 132.67,-34.55 225.12,-87.31l141.38 -87.66c28.84,-15.9 32.25,-10.18 33.28,-46.33 -106.28,40.42 -311.63,157.79 -436.13,197.39l319.53 -208.83c34.98,-21.67 74.44,-40.39 109.66,-67.11l-27.01 -299.91c-205.49,85.71 -647.37,378.44 -696.18,397.15 23.49,-22.53 38.01,-41.67 67.6,-67.84 22.49,-19.89 53.55,-42.91 80.15,-63.85 115.63,-91.03 529.94,-348.78 536.4,-355.02 0.48,-39.2 3.33,-122.38 -14.53,-148.52 -5.09,32.8 -5.79,14.06 3.63,37.34 -29.01,7.34 -42.78,21.03 -68.52,34.67l-357 252.4c-1.46,1.09 -3.45,2.6 -4.86,3.72l-9.03 7.98c-9.21,8.01 0.02,0.93 -13.26,11.99 -7.61,6.34 -6.59,4.65 -14.33,10.99l-144.97 125.33c-57.24,44.01 -40.05,20.64 -79.36,73.3 -11.15,14.95 -15.63,18.41 -29.37,29.86l-78.54 74.11c-6.49,7.22 -22.55,23.27 -29.63,29.54 -60.27,53.35 -22.43,5.93 -96.51,105.45 17.4,-19.82 422.92,-207.13 455.88,-220.95 79.5,-33.32 158.86,-69.44 240.25,-98.59 88.27,-31.62 169.26,-76.18 254.7,-97.33 7.34,76.37 -8.29,56.73 -137.15,147.97l-541.68 369.64 -20.98 -51.64c-3.92,-17.48 -6.99,-33.54 -10.63,-47.23 -41.51,-9.23 -102.82,-4.59 -135.68,2.86l-34.37 14.22z"/>
   <path class="fil3" d="M5652.7 5860.19l1.03 0.9c29.82,-42.85 56.78,-21.06 110.62,-39.8 53.03,-18.47 59.3,-76.17 57.77,-81.95l-13.55 59.99c28.6,-16.38 102.18,-191.19 101.74,-220.93 -16.2,95.37 -42.99,191.09 -58.25,278.87l237.35 -48.78c51.34,-22.91 6.46,-21.2 37.47,-52.06 20.12,27.61 2.85,25.71 21.65,51.2 18.72,25.4 -22.06,-8.26 20.64,19.61l-4.8 -270.85 37.99 245.83c6.55,15.37 5.8,13.14 12.29,21.58 11.94,-141.13 -22.33,-278.63 -14.35,-416.49 -2.7,35.93 25.87,201.31 32.57,256.88 6.9,57.32 17.93,327.5 45.21,343.49 16.26,9.53 5.8,10.52 15.7,-28.25 6.58,-31.79 -37.73,-780.71 -47.73,-846.99 -66.28,-15.61 -164.89,1.31 -164.9,1.31 -24.5,-1.4 -49.56,-6.02 -75.79,-4.58 -16.82,46.95 -46,107.13 -68.15,161.7 -24.22,59.68 -45.83,111.7 -66.32,170.47l-126.52 340.55 -110.67 25.64 19 32.66z"/>
   <path class="fil2" d="M4542.46 4978.68c4.27,-20.84 21.3,-49.65 1.93,-52.72 -39.64,76.65 -156.78,151.76 -287.23,129.16 -60.48,-10.47 -95,-44.88 -145.03,-66.72 -60.69,-26.51 -125.44,-13.24 -159.81,-49.82 -7.16,-63.45 48.75,-84.32 80.46,-121.71 36.26,-42.78 47.66,-56.6 119.01,-77.43 -57.15,-3.07 -85.61,22.22 -126.35,40.79 81.33,-134.77 262.16,-3.9 311.07,8.67 130.49,33.53 235.34,-67.53 237.18,-186.75 -116.44,178.98 -230.09,24.51 -343.66,14.64 -88.31,-7.67 -227.92,91.89 -270.15,169.73 -6.76,12.46 -1.81,7.02 -12,22.32 -22.89,34.33 20.13,-25.23 -8,10.64l-9.31 10.31c-48.09,-124.88 -265.65,-113.33 -382.28,-14.92 -43.78,36.94 -54.02,52.44 -73.04,122.84 -5.84,-17.97 0.85,-36.57 -7.35,-52.19 -22.41,44.19 -52.05,73.94 -62.63,139.68 -21.4,132.89 62.87,283.13 120.8,278.27 22.76,-1.92 99.31,-61.76 129.76,-74.73 -1.37,-1.85 -3.83,-6.67 -4.58,-5.18 -0.74,1.46 -3.53,-3.99 -4.55,-5.09 -6.41,-6.86 -7.74,-8.07 -13.27,-13.92 -140.75,-148.67 128.07,-350.84 224.38,-134.29 69.22,13.9 110.07,-37.05 195.04,-25.09 64.88,9.14 108.41,48.44 170.86,59.53 117.54,20.88 286.68,-46.4 318.75,-126.02z"/>
   <path class="fil11" d="M5873.43 4145.71c-5.02,-36 -1.51,-19.72 5.38,-29.58 12.99,31.81 27.52,45.32 64.42,53.78 -27.8,-56.46 -58.65,-76.9 -24.11,-159.89 18.69,-44.88 56.22,-87.43 91.68,-110.2 241.09,-154.76 328.66,272.99 590.38,-19.83 83.54,-93.47 130.53,-111.69 293.46,-104.45 -90.36,-57 -112.96,-19.49 -174.35,-47.21 177.84,-76.39 265.64,120.45 424.56,150.1 100.18,18.7 147.17,-9.43 175.97,9.99 -80.7,42.65 -100.78,24.6 -186.97,25.16 96.39,72.7 335.7,21.37 423.55,-127.48 40.26,-68.21 59.64,-158.11 38.77,-249.08 -18.4,-80.25 -71.43,-161.37 -131.65,-177.92 15.97,34.64 19.61,18.74 21.92,55.21 1.06,16.78 -4.44,38.56 -5.13,59.93 -2.7,82.67 -2.8,145.06 -87.11,209.07 -21.4,16.26 -58.76,45.13 -86.85,47.39 41.15,-5.2 140.36,-30.16 171.54,-56 41.21,-34.14 73.56,-119.4 51.79,-198.3 16.78,7.5 34.9,8.16 45.71,65.12 5.49,28.96 6.03,72.28 3.3,101.76 -2.75,29.74 -8.14,59.92 -16.28,87.35 -4.37,14.76 -7.75,24.34 -14.17,36.26 -15.27,28.36 -17.2,26.61 -33.83,36.26l-18.17 -37.16c-0.93,-2.64 -6.65,-22.59 -7.23,-23.78 -80.6,98.38 -227.37,107.92 -362.36,43.18 -67.52,-32.38 -89.35,-50.74 -179.06,-64.03 -91.82,-13.6 -125.84,-25.92 -225.72,-25.02l17.87 -14.11c47.47,-27.62 126.15,-31.97 178.89,-22.44 48.99,8.85 134.43,36.26 176.97,52.86 -8.05,-1.92 -117.82,-68.22 -165.21,-84.95 -70.03,-24.73 -137.22,-40.53 -217.05,-14.1 -122.44,40.54 -262.51,177.56 -344.13,188.83 -139.81,19.31 -226.72,-135.52 -412.72,-15.1 -55.03,35.63 -88.95,71.48 -116.77,152.37 -18.18,52.87 -26.54,159.32 32.71,206.01z"/>
   <path class="fil4" d="M3481.63 5712.45c-17.21,140.07 193.75,389.06 227,397.41 4.92,-27.22 -31.61,-108.28 -37.04,-150.62 40.1,30.66 52.07,80.44 84.62,116.88 39.67,-20.13 84.7,-45.92 106.55,-83.74 36.37,-62.96 33.35,-75.82 20.4,-148.58 30.23,15.31 14.32,6.04 31.96,36.51 10.54,18.21 15.89,23.82 22.52,44.66 13.2,41.53 7.3,83.88 -4.7,122.43 -28.5,91.57 -59.34,108.63 -108.06,160.89 19.52,27.35 60.78,72.12 102.02,85.69 43.16,-114.98 89.63,-215.68 156.33,-304.8 -12.66,56.74 -53.19,115.48 -54.4,174.01 42.88,-33.07 49.3,-60.41 81.08,-92.51 44.46,-44.9 29.1,-16.05 87.36,-90.5 18.67,-23.87 21.98,-21.42 42.61,-41.73 17.63,-17.35 26.59,-32.52 41.4,-51.91l261.92 -271.4c64.14,-60.17 78.9,-82.94 125.96,-136.68 15.24,-17.39 26.96,-22.03 44.86,-47.28 -167.9,84.03 -337.63,218.65 -566.21,314.13 -197.46,82.49 -324.26,137.14 -526.33,47.5 -37.7,-16.72 -126.6,-78.08 -139.85,-80.36z"/>
   <path class="fil8" d="M2425.61 5025.36c39.79,-79.21 217.12,-110.94 323.76,-118.29 139.7,-9.64 254.56,8.65 370.84,54.27 -49.43,-23.02 -97.12,-50.48 -161.36,-71.49 -49.68,-16.24 -173.4,-20.37 -201.71,-35.73 69.55,-20.61 143,-21.02 220.5,-11.14 172.89,22.02 90.78,-46.3 168.69,-49.75 7.02,50.78 2.18,47.89 -6.51,89.85l90.01 44.79c18.41,-44.25 54.05,-90.86 25.05,-149.61 -27.97,-56.66 -60.85,-65.61 -98.91,-111.47 56.43,10.05 111.51,35.86 150.84,68.24 -34.16,-41.19 -138.65,-111.26 -205.36,-139.92l-187.17 -67.22c-35.17,-12.45 -28.18,-14.08 -38.64,-44.79 -82.54,21.19 -56.67,57.87 -144.81,87.9 -86.27,29.4 -138.92,-3.02 -190.2,6.15 42.64,58.62 92.77,84.94 191.21,69.95 36.74,-5.59 64.35,-10.88 98.22,-31.49 16.12,-9.81 4.12,-0.8 19.92,-15.53 21.38,-19.92 34.22,-34.99 40.7,-59.9 7.79,203.16 -231.91,238.03 -407.44,180.82 -38.52,-12.55 -29.34,-20.44 -73.23,-27.14l-45.36 176.6c-9.52,65.63 -22.3,138.27 -22.33,209.98 73.49,-18.66 30.33,-30.77 83.29,-55.08z"/>
   <path class="fil8" d="M6605.76 2020.71c46.92,17.66 148.54,68.9 167.26,107.43 -72.12,-9.06 -115.97,-26.07 -198.97,-18.95 48.6,32.35 161.87,50.57 230.94,117.65 -90.8,-22.19 -162.84,-48.88 -270.6,-52.52 81.29,20.05 200.72,70.42 263.7,110.41 63.83,40.53 169.04,120.58 195.18,193.61l-32.64 4.21c89.1,11.47 169.68,100.61 133.21,214.28 -12.71,39.63 -16.47,28.23 2.55,69.22l81.9 146.45c22.15,31.97 -3.27,14.07 32.32,22.41 40.74,-76.82 8.67,-299.17 -16.24,-373.53 -2.63,-7.88 -19.22,-43.17 -22.61,-47.51 -27.02,-34.62 -12.97,-1.09 -38.71,-30.92 0.06,-0.05 0.8,-19.4 44.55,-3.46 14.08,5.13 32.53,16.23 45.83,23.87 29.65,17.03 49.1,30.07 78.07,44.33 -17.59,-95.34 -134.13,-262.43 -178.17,-316.19l-131.78 -114.56c-67.47,-46.34 -98.65,-55.44 -196.42,-56.23 27.05,-36.22 105.65,-52.58 152.97,-53.09 -15.89,-31.63 18.77,-8.92 -63.87,-54.98 -58.16,-32.41 -158.28,-88.02 -220.39,-102.11 -11.97,94.18 -47.04,115.4 -58.08,170.18z"/>
   <path class="fil8" d="M2594.39 5821.5c-1.03,-29.59 -11.82,-7.27 18.95,-18.04l113.88 -13.18c55.52,-3.95 88.39,7.71 140.72,10.6 -41.12,-20.36 -112.63,-23.1 -145.39,-40.27 99.67,-10.76 133.37,-1.76 225.59,3.39 13.52,-30.61 24.12,-81.06 27.71,-115.23 5.51,-52.43 -13.65,-76.13 -31.27,-104.01 101.63,24.96 75.63,101.82 84.39,202.75 18.59,-63.55 57.88,-0.78 64.85,-98.33 4.47,-62.55 -12.26,-86.53 -55.96,-110.3 -57,-31 -130.49,-47.78 -196.25,-55.63 -36.1,-4.32 -43.5,-3.75 -64.27,-23.91l109.75 -4.03c-124.26,-3.99 -299.86,-40.2 -450.21,41.06 -24.03,12.99 -34.16,17.34 -54.36,31.49 -24.08,16.87 -33.89,26.43 -57.13,37 0,135.66 25.39,252.07 36.4,380.65 89.64,-39.23 39.65,-51.63 232.6,-124.01z"/>
   <path class="fil12" d="M3845.81 5094.9c-20.48,67.28 -165.7,185.68 -230.8,227.25 -128.98,82.35 -203.39,79.44 -368.93,96.75 21.39,78.37 183.51,136.12 281.57,154.03 233.69,42.68 477.89,-43.24 637.93,-208.27 20.43,-21.07 34.11,-33.53 55.98,-54.07 27.89,-26.21 127.44,-158.31 133.08,-190.92 -36.3,7.65 -74.44,84.13 -111.43,128 -171.85,203.77 -409.09,328.25 -686.43,296.32 -1.98,-0.23 -33.44,-4.98 -35.37,-5.62 -33.15,-11.02 -17.11,-4.37 -34.04,-20.12 306.74,-1.37 488.01,-101.06 669.66,-306.12 25.94,-29.28 38.55,-52.43 62.02,-79.8 -19.21,-14.27 -15.68,-5.09 -39.61,-15.67 -249.43,-110.24 -159.45,-12.37 -333.63,-21.76z"/>
   <path class="fil1" d="M4018.69 4408.84l-13.05 40.95 -32.7 -15.32c8.68,34.34 5.31,13.33 -21.44,46.71 -13.82,17.25 -25.68,33.38 -30.5,51.78 -17.92,27.24 -36.79,67.81 -20.86,99.38 26.79,-7.01 25.59,-14.21 58.82,-32.73 125.04,-69.66 228.49,-135.4 359.82,-96.88 26.07,7.65 43.97,19.9 62.78,30.97 29.88,17.58 36.06,21.14 49.43,51.16l9.37 -34.12c1.43,-27.9 -21.37,-89.39 -32.62,-111.05 -8.16,-15.72 -24.42,-43.09 -34.08,-59.74l-37.04 -57.55c56.82,17.48 84.86,59.55 111.27,101.5 0.99,1.57 2.25,3.71 3.21,5.32 31.66,52.95 61.89,119.6 75.49,181.71 11.02,-8.97 20.58,-18.48 30.57,-38.3l33.83 -54.72c12.9,164.41 -1.26,187.24 -86.13,276.44 8.23,43.01 23.9,59.63 39.53,131.61 19.37,3.07 2.34,31.88 -1.93,52.72 2.14,1.41 38.65,-2.49 -17.99,58.91 -53.38,57.88 -99.98,59.17 -128.97,157.97 118.6,-121.3 175.18,-161.76 227.41,-378.9 52.66,-218.94 -1.92,-335.01 -69.8,-509.11 -20.15,-20.93 -14.97,-28 -27.52,-67.03 -118.85,-139.54 -327.73,-96.93 -436.69,31.51 -47.98,56.56 -50.44,69.55 -65.7,158.61l-4.51 -21.8z"/>
   <path class="fil10" d="M5951.63 6320.23l8.48 47.7c0.29,1.22 0.99,3.73 1.28,4.96 0.3,1.21 1.04,3.69 1.33,4.91 12.79,53.58 -9.87,26.82 33.1,59.09 -10.74,87.34 -36.25,178.6 -50.47,269.72 -6.27,40.2 -18.82,96.67 -19.57,137.67 -1.21,65.92 4.43,81.55 40.23,117.31l35.55 -38.85c98.76,71.45 36.6,-151.52 82.98,-221.56 38.65,52.69 135.24,307.36 186.27,334.98 8.23,-24.54 -4.26,-25.9 2.03,-54.41 3.64,-16.49 21,-19.74 8.2,-62.27 6.51,-3.63 13.85,4.87 28.44,-11.69l20.88 -50.05 -120.31 -217.15c26.36,-41.48 215.11,-178.91 113.21,-315.1 -77.46,-103.52 -308.75,-47.8 -371.63,-5.26z"/>
   <path class="fil7" d="M6516.92 1780.28c-27.86,-19 -50.23,-57.39 -81.06,-66.17 32.93,84.89 18.72,147.73 -29.28,210.47 -64.41,84.19 -108.5,63.74 -190.89,104.13 62.57,6.93 124.51,-19.25 164.87,-45.41 75.35,-48.85 74.22,-98.83 104.5,-131.37 -6.92,121.6 -115.39,212.02 -248.17,209.18 -81.51,-1.73 -120.39,-21.69 -199.15,11.03 -47.39,19.68 -108.48,63.58 -127.11,93.86 239.65,-116.05 227.48,22.23 401.74,1.28 131.56,-15.81 244.98,-127.5 290.61,-215.62 149.68,-289.06 -143.7,-596.1 -397.05,-358.47 4.82,-9.29 23.37,-41.26 30.37,-50.84 23.17,-31.69 27.75,-17.57 51.88,-41.01 -126.1,-10.11 -184.69,34.19 -227.66,111.07 -14.07,25.16 -48.5,89.68 -50.8,118.21 -4.51,55.66 42.24,81.4 96.99,64.6 83.68,-25.69 78.68,-110.17 203.66,-136.48 98.1,-20.65 204.8,36.15 206.55,121.54z"/>
   <path class="fil7" d="M5432.61 1330.27c39,-64.85 20.23,-97.07 91.03,-128.34 69.83,-30.85 132.36,-9.51 160.95,38.8 50.89,85.99 -39.9,223.56 57.66,255.5 36.87,12.06 56.01,-8.68 84.8,-18.09 -29.53,40.14 -100.48,74.93 -175.04,48.25 -90.79,-32.5 -88.61,-98.01 -131.49,-116.68 -8.03,67.5 2.26,72.24 -19.25,133.64 -46.37,132.34 71.07,255.27 221.78,197.46 -22,4.01 -28.74,-0.42 -44.84,-11.39 7.13,-3.93 250.45,-32.59 239.16,-203.2 1.05,-0.73 3.39,-1.97 3.74,-0.85 0.77,2.48 -13.06,11.65 7.57,-2.61 15.08,-10.42 2.88,14.33 13.07,-15.44 31.61,-92.33 -97.42,-92.84 -99.76,-93.39 -61.21,-14.38 -121.25,-102.53 -96.11,-143.48 28.09,14.24 69.65,148.19 164.34,89.91 31.85,-19.61 45.17,-68.81 22.17,-105.17 -25.61,-40.5 -56.05,-24.96 -101.85,-23.54 -10.05,-14.65 -1.78,-1.38 -8.04,-19.98l-24.98 -57.27c44.19,15.59 23.48,29.31 49.96,56.75 17.93,-33.69 -40.34,-99.01 -59.27,-116.69 -49.18,-45.95 -106.83,-18.41 -164.5,-9.43 12.34,-22.79 9.71,-19.67 43.72,-35.82 1.56,-0.74 4.55,-2.17 5.82,-2.77 1.28,-0.6 4.06,-1.61 5.85,-2.82 -148.35,-105.47 -363.86,141.61 -246.49,286.65z"/>
   <path class="fil4" d="M6438.71 4415.03c46.2,-32.87 37.48,1.22 67.96,-63.6 40.69,-86.51 45.44,-220.92 -0.08,-301.2 -17.28,21.53 -10.99,53.01 -19.42,89.34 -14.11,60.79 -58.09,161.83 -97.83,199.83 -12.15,-24.73 -19.68,-69.21 -34.04,-102.32 -34.65,-79.85 -137.57,-189.36 -218.51,-195.87 30.23,67.77 111.77,139.42 104.99,249.2 -86.96,-118.73 -236.58,-137.6 -273.3,-301.7 -54.4,35.54 -28.55,128.43 -26.89,130.93 30.33,21.82 37.17,25.96 74.28,37.94 -11.21,38.22 -30.16,63.02 -71.58,73.73 -52.98,13.69 -84.23,-13.08 -130.68,-13.72 -19.9,21.28 -17.12,19.82 -23.9,50.66 -37.2,-19.12 -4.23,-16.22 -57.45,-19.23 43.83,92.77 176.78,182.62 250.64,191.7 -11.19,-44.44 -33.44,-78.27 -44.44,-129.95l36.01 51.62c34.3,49.38 135.48,80.39 211.63,84.79 -17.3,-60.77 -46.62,-78.6 -50.81,-144.69 34.92,20.47 62.81,80.71 92.51,111.57 29.46,30.59 83.66,68.43 85.38,126.25 46.9,-21.77 44.72,-26.74 72.82,-63.2 20.19,-26.2 41.03,-48.63 49.79,-80.55l2.92 18.47z"/>
   <path class="fil4" d="M6960.63 2482.55l32.64 -4.21c-26.14,-73.03 -131.35,-153.08 -195.18,-193.61 -62.98,-39.99 -182.41,-90.36 -263.7,-110.41 107.76,3.64 179.8,30.33 270.6,52.52 -69.07,-67.08 -182.34,-85.3 -230.94,-117.65 83,-7.12 126.85,9.89 198.97,18.95 -18.72,-38.53 -120.34,-89.77 -167.26,-107.43 -29.95,19.19 -47.6,60.05 -89.2,90.16 -34.1,24.67 -76.72,42.5 -109.67,67.29 24.16,13.06 337.63,82.75 495.98,247.77 23.77,24.77 11.17,6.47 23.76,37.99 -50.65,-6.61 -40.65,-12.26 -76.6,-35.21l-212.3 -93.9c39.48,20.07 135.61,95.25 150.57,135.47 -40.2,-12.71 -85.06,-44.43 -127.8,-63.7 -44.66,-20.13 -101.34,-37.1 -154.36,-41.64 56.2,40.52 220.17,115.35 257.42,245.57 -71.25,-39.05 -140.91,-172.04 -417.25,-153.66 19.02,73.51 99.72,80.06 153.97,135.43 40.41,41.23 13.21,43.51 74.71,68.34 61.82,24.96 43.26,41.43 82.81,63.4 138.21,76.76 383.55,-144.2 269.01,-244.43l33.82 2.96z"/>
   <path class="fil10" d="M6968.22 5853.88c-22.94,29.14 -32.1,106.7 -32.47,151.21 19.41,21.16 31.5,25.71 50.21,46.81 16.59,18.7 25.04,41.02 56.2,44.72 17.93,2.13 129.47,-27.95 157.85,-34.46l247.41 -49.09c41.98,-22.13 -16.22,2.24 51.29,-50.32 -7.91,-22.79 17.81,-8.29 -20.61,-21.76 36.11,-31.13 37.38,-8.77 29.89,-61.45l56.15 -21.53 -12.61 -27.12c37.01,-7.55 31.62,-6 44.72,-20.54 -10.35,-9.48 0.2,-2.85 -16.55,-12.73 -68.47,-40.37 -322.76,15.38 -397.56,24.28l31.38 -168.32c-34.56,-8.62 -6.91,0.47 -50.08,-41.84 -9.75,-9.56 -25.72,-21 -30.92,-32.56l-39.32 107.26 -5.68 -39.22c-7.52,49.26 -6.33,42.86 -28.13,61.49 1.1,-41.83 42.77,-309.24 48.53,-319.26l-98.23 370.77c-15.25,38.31 -27.15,85.58 -35.96,125.88l-5.51 -32.22z"/>
   <path class="fil3" d="M6321.35 6545.7c15.05,87.94 48.18,25.08 29.88,140.5 -28.35,178.84 -43.77,134.34 28.44,210.33 13.85,-0.33 250.14,-31.85 275.13,-68.44l62.96 -116.86c-82.27,-11.34 -160.87,9.87 -240.9,17.72l15.57 -108.07 34.91 -11.47c10.55,-2.7 25.01,-4.85 34.84,-6.57 27.12,-4.74 46.89,-7.29 72.69,-15.01l21.3 -47.72c3.8,-9.56 2.33,-8.82 7.93,-17.48l17.3 -23.93c0.49,-0.84 1.47,-3.08 1.95,-3.93l6.8 -12.03c11.35,-18.67 2.29,8.45 12.46,-19.67l-173.49 6.05c22.13,-100.21 8.62,-93.37 59.36,-103.57 13.25,-2.67 32.35,-4.46 46.27,-6.26 27.99,-3.63 59.67,-6.06 83.96,-13.14l8.07 -11.96c23.39,-32.99 77.76,-89.99 60.49,-116.56 -57.24,-7.6 -374.45,26 -404.62,53.38 -40.16,36.46 -10.59,-3.53 0.04,56.03l1.89 10.17c7.05,45.94 39.51,53.15 2.07,157.26 -10.03,27.88 -40.39,34.62 -65.3,51.23z"/>
   <path class="fil3" d="M7397.31 6580.82c0.1,52.14 -65.55,104.95 -119.69,112.01l-21.57 -85.65c-31.07,-2.27 7.96,-0.55 -19.03,1.48l-58.31 14.9c-1.5,0.88 -3.63,2.28 -5.23,3.2 -1.71,0.99 -3.95,2.34 -5.69,3.32 -1.84,1.04 -4.36,2.41 -6.08,3.36l-12.91 6.64c-3.07,99.61 33.26,185.1 108.63,208.7 72.92,22.83 347.68,-196.64 270.45,-331.36 -50.9,-88.78 -131.95,-65.09 -203.07,-114.4 9.78,-39.5 70.36,-112.09 107.37,-111.57l1.99 63.88c36.29,6.38 33.33,-3.29 54.42,8.38 28.11,15.55 -26.93,-3.23 20.41,14.22 31.58,-58.7 60.37,12.16 55.25,-101.76 -2.56,-56.69 -20.98,-90.91 -53.13,-114.64 -118.54,-87.47 -369.56,164.91 -331.44,297.45 24.75,86.08 151.18,71.78 217.63,121.84z"/>
   <path class="fil3" d="M6991.02 6605.49c-3.07,56.64 -64.35,108 -120.05,119.27l-26.74 -89.85c-32.13,3.35 -92.75,14.6 -106.89,47.51 -13.98,80.91 47.91,183.06 112.96,201.31 58.63,16.44 348.34,-194.12 264.66,-334.32 -40.54,-67.93 -131.58,-84.77 -208.75,-112.36 14.4,-45.12 70.55,-103.24 111.86,-117.82 1.35,90.96 14.28,50.87 58.24,73.58 8.99,4.64 -6.19,4.68 15.76,8.56 34.94,-43.7 9.5,-12.92 48.02,-33.51 28.2,-184.75 -91.2,-294.45 -298.34,-71.1 -234.32,252.65 87.06,281.03 149.27,308.73z"/>
   <path class="fil1" d="M6603.4 3939.18c3.58,15.3 7.73,132.41 -19.28,152.48 2.28,1.66 22.57,22.54 2.35,-1.17 -14.6,-17.12 -23.45,-16.45 -42.08,-20.95l48 137.79c14.95,38.3 6.03,20.59 24.2,30.56 22.25,8.93 -0.98,-25.39 22.46,26 17.91,39.27 22.42,109.3 21.27,149.42 43.58,-13.9 20.42,7.59 48.57,-38.61 152.02,-249.62 80.37,-212.34 109.14,-371.92l32.62 196.96c13.37,30.58 3.23,14.95 29.72,35.77 13.06,-61.31 145.71,-281.8 133.22,-338.72 -0.59,-2.7 -2.22,-5.73 -2.85,-7.97 -8.72,-30.94 -173.49,-133.5 -333.92,-43.57 -47.75,26.77 -42.18,52.92 -73.42,93.93z"/>
   <path class="fil8" d="M5968.48 3988.71c36.72,164.1 186.34,182.97 273.3,301.7 6.78,-109.78 -74.76,-181.43 -104.99,-249.2 80.94,6.51 183.86,116.02 218.51,195.87 14.36,33.11 21.89,77.59 34.04,102.32 39.74,-38 83.72,-139.04 97.83,-199.83 8.43,-36.33 2.14,-67.81 19.42,-89.34 45.52,80.28 40.77,214.69 0.08,301.2 -30.48,64.82 -21.76,30.73 -67.96,63.6l-30.91 84.68c35.7,-6.5 56.84,-15.5 87.78,-29.69 45.01,-20.65 41.5,-22.62 63.4,-57.44 36.54,-58.07 63.85,-89.5 57.61,-174.69 -18.17,-9.97 -9.25,7.74 -24.2,-30.56l-48 -137.79c18.63,4.5 27.48,3.83 42.08,20.95 20.22,23.71 -0.07,2.83 -2.35,1.17 27.01,-20.07 22.86,-137.18 19.28,-152.48 -27.68,5.8 2.44,-5.99 -27.12,17.2 -12.21,9.58 -18.4,15.33 -35.21,24.62 -90.69,50.09 -195.3,38.84 -274.28,-20.54 -44.25,-33.28 -72.67,-70.83 -161.53,-58.66 -61.89,8.48 -120.51,50.98 -136.78,86.91z"/>
   <path class="fil2" d="M3052.52 6192.8l101.63 101.13c168.71,172.73 412.89,184.59 571.65,19.36 68.07,-70.85 19.78,-77.07 105.94,-147.84 27.35,-22.46 50.71,-50.47 67.32,-85.35 21.56,-45.3 41.32,-128.28 6.65,-171.21 -23.04,149.54 -183.17,235.61 -315.11,277.11 -87.5,27.52 -174.64,32.63 -269.86,16.87 -122.4,-20.25 -147.92,-15.44 -268.22,-10.07z"/>
   <path class="fil9" d="M6329.67 4862.18c16.52,-42.81 61.96,-96.22 48.98,-149.11 -45.76,8.6 -123.66,115.75 -155.27,152.4 -42.94,49.77 -112.5,100.67 -156.29,165.57 61.33,-3.84 85.75,3.94 144.65,5.95 62.32,2.13 75.96,27.49 109.87,43.02 211.63,-130.18 243.43,41.04 301.06,-306.73 54,166.91 17.97,90.23 28.6,214.54 27.8,-9.87 21.42,-4.37 27.72,-40.86 20.35,-117.85 -8.09,-212.5 -81.21,-301.41 -20.18,-24.55 -49.14,-69.92 -77.75,-86.82 -15.89,117.21 -119.55,262.29 -190.36,303.45z"/>
   <path class="fil7" d="M1572.82 5227.16c14.94,92.91 218.95,138.42 329.19,138.93 104.48,0.49 198.4,-30.03 290.23,-69.51 51.65,-22.2 57.13,-11.57 60.99,-65.75 -149.35,65.95 -246.68,134.06 -458.85,102.22 -32.49,-4.88 -43.01,-6.14 -63.88,-22.75 217.59,-16.33 304.18,-43.67 438.28,-156.01 40.39,-33.83 110.15,-97.92 125.14,-170.08 23.14,-111.36 36.57,-156 -61.71,-192.12 -22.92,17.39 -45.77,56.77 -60.28,77.56 -81.43,116.72 -95.52,125.86 -193.61,212.53 -121.44,107.3 -209.27,121.17 -405.5,144.98z"/>
   <path class="fil8" d="M3023.49 7209.08c-48.49,26.96 -105.08,68.73 -134.16,113.24 -30.05,46 -22.94,57.59 2.24,96.46 23.99,37.02 28.78,51.2 60.35,76.4 97.97,20.05 108.11,-29.69 180.91,-45.83 -28.53,52.11 -92.08,71.09 -147.04,71.93 14.08,51.67 36.84,70.95 70.92,97.76 16.46,12.95 28.15,18.1 44.26,32.56 16.83,15.12 19.15,26.46 45.78,32.8 84.85,20.17 188.54,-55.07 206.97,-98.53 -3.41,18.51 -44.95,26.83 -75.21,29.44 26.24,-55.86 162.89,-114.75 12.03,-218.4 -18.9,10.59 -26.96,25.65 -36.86,44.56 -26.24,-27.75 -5.45,-28.59 -15.17,-50.09 -15.13,44.9 -57.56,95.05 -112.79,108.41 10.73,-30.62 8.57,-23.27 28.44,-48.01 14,-17.43 14.86,-19.07 26.36,-39.57 -0.8,-2.7 -13.28,-5.63 -16.03,-27.23 24.75,-20.77 24.83,-27.83 44.53,-50.63 -6.65,-7.1 -1.75,-1.06 -30.61,4.74 -16.34,-124.67 -48.44,-86.33 -83.66,-124.05 74.9,-35.79 95.65,7.59 112.84,69.22 26.38,-42.01 -22.61,-90.5 -52.51,-105.68 -44.38,8.49 -84.62,30.74 -118.54,49.28l-11.63 -16.76c-0.16,-0.24 -0.88,-1.4 -1.42,-2.02z"/>
   <path class="fil12" d="M3845.11 3230.81c-4.53,86.21 60.81,193.78 101.33,230.27 147.59,132.9 348.27,130.18 506.94,6.81 46.93,-36.48 120.59,-124.41 121.14,-219.19l-106.82 -19.54c-37.04,73.17 -71.65,171.3 -220.47,171.92 -122.84,0.51 -201.95,-77.94 -211.08,-190.32l-191.04 20.05z"/>
   <path class="fil8" d="M2486.25 4413.31c82.21,-1.82 187.24,12.27 253.9,-33.76 123.56,-85.31 99.46,-271.9 342.12,-223.02 67.2,13.54 156.29,90.06 201.91,19.76 -43.07,-29.42 -98.24,-49.99 -154.66,-67.45 -203.85,-63.11 -330.39,-64.35 -520.43,45.35 -42.71,24.66 -49.09,50.35 -73.9,107.37 -23.14,53.2 -44.9,90.06 -48.94,151.75z"/>
   <path class="fil1" d="M2418.52 3278.78c98.01,-16.67 179.68,-57.81 305.67,-74.5 123.41,-16.34 230.28,-6.79 352.28,-10.12 -35.18,-27.16 -81.83,-29.29 -119.67,-38.69 -44.31,-11.01 -33.79,3.21 -23.23,-19.61 -0.51,-2.56 -38.81,2.33 11.17,-11.7 24.8,-6.95 73.86,3.71 96.98,6.78 -21.99,-7.11 -47.11,-24.19 -68.89,-33.91 9.21,-8.28 -6.06,-29.56 72.18,-0.61 -10.2,-67.82 -76.14,-73.29 -136.28,-85.84 -100.33,-20.95 -229.08,-42.67 -329.25,6.38 -42.43,20.77 -61.32,17.1 -86.09,49.17 -45.71,59.21 -70.11,112.05 -74.87,212.65z"/>
   <path class="fil8" d="M2975.21 6016.48c-7.87,-80.86 -54.81,-73.42 -133.12,-75.43 -45.72,-1.69 -71.17,24.89 -102.58,56.63l-9.75 9.85c4.73,-84.19 50.65,-139.58 110.35,-159.37 -106.6,-15.62 -167.49,-13.41 -268.54,14.1 -52.69,14.34 -173.91,64.22 -195.38,117.47 -10.85,26.88 23.15,219.67 50.75,262.34l110.09 -84.4c130.32,-98 223.96,-172.63 438.18,-141.19z"/>
   <path class="fil3" d="M4211.9 7379.97c110.1,38.9 78.55,-99.94 70.69,-165.67 -10.88,-90.96 -13.39,-183.48 -13.41,-277.88 -0.01,-80.78 31.65,-502.49 4.34,-534.38 -23.25,-27.14 -78.51,-18.22 -91.55,12.74 -9.68,22.98 3.24,107.73 3.54,140.64 1.66,188.14 -14.62,351.71 -10.13,567.26 1,48.01 2.67,96.06 4.52,144.03 1.99,51.75 -6.78,87.06 32,113.26z"/>
   <path class="fil12" d="M2621.46 3278.23l-150.53 36.26c-27.49,347.43 530.31,347.48 589.58,-58.36l-57.84 -4.45c-1.3,1.72 -2.8,2.55 -3.28,5.75l-11.12 23.93c-86.68,208.68 -337.75,157.54 -366.81,-3.13z"/>
   <path class="fil8" d="M2957.61 6911.76c-24.73,-12.57 -14.21,-3.84 -42.74,-1.45l-36.38 -1.76c-2.18,-0.59 -5.13,-2.24 -6.88,-2.83 -1.77,-0.59 -4.75,-1.78 -6.8,-3.23l162.41 -40.86c0.72,-2.31 1.31,-7.54 1.4,-6.41l1.48 -25.33c-5.39,-53.47 -25.91,-59.64 -54,-96.29 -1.57,-2.05 -3.68,-4.88 -5.29,-7.47l63.41 1.97 36.95 93.38c28.57,-29.88 -14.29,-107.03 -63.54,-116.78 -65.14,-12.89 -123.52,13.07 -183.65,18.1 19.03,-27.78 85.83,-45.98 119.71,-51.86l-17.54 -2.11c-44.45,-2.82 -135.72,24.84 -172.07,44.52 -29.71,16.08 -122.74,66.7 -133.61,93.94 -3.09,84.05 60.98,167.41 69.56,247.62 53.09,-7.6 37.05,-8.56 68.11,-40.8l58.18 -43.57c35.55,-27.38 90.25,-54.34 141.29,-58.78z"/>
   <path class="fil13" d="M2986.69 3285.12l2.64 1.06c1.27,41.43 -5.22,73.09 -21.68,103.32 -8.11,14.88 -2.46,28.6 -11.08,42.92 -10.87,18.04 -21.35,13.34 -35.08,31.27 115.26,-20.41 71.89,-50.14 99.46,-81.63 15.02,-16.03 39.1,-61.68 39.56,-125.93l-59.14 -2.92 -14.68 31.91z"/>
   <path class="fil8" d="M2976.45 7203.47c-0.53,-26.34 7.68,-9.28 -4.46,-28.2 32.37,-31.22 97.84,-50.06 116.46,-82.78 -18.91,-33.52 -39.74,-67.44 -50.02,-109.79 99.79,-8.16 32.33,47.86 91.25,64.87 12.94,-34.23 -3.53,-81.15 -37.29,-89.36 -36.24,-8.81 -89.48,9.81 -126.82,14.53 9.26,-9.37 4.4,-5.49 16.84,-14.31l72.28 -29.71c-7.66,8.22 9.67,9.56 -23.8,4.12 -77.24,-1.86 -227.73,63.1 -293.05,119.75 -48.5,42.07 8.24,147.94 44.97,220.77 35.72,70.83 31.56,53.75 67.43,60.22 20.45,-41.49 18.28,-38.97 55.51,-71 26,-22.37 37.2,-44.42 70.7,-59.11z"/>
   <path class="fil1" d="M3860.07 3029.65c39.89,-23.74 65.48,-33.97 123.85,-36.68 -32.98,55.26 -61.4,19.54 -125.33,82.43 49.5,-18.25 44.9,-5.32 56.72,6.27l-45.55 25.31c92.31,-12.7 167.71,-41.82 267.48,-7.43 -163.87,20.26 -219.41,-3.52 -333.56,89.78 46.67,1.44 135.56,-31.19 219.03,-31.61 93.25,-0.47 170.64,-5.04 266.96,-2.33 1.79,-80.35 31.06,-175.95 79.54,-229.6 -114.75,3.18 -290.54,30.8 -418.58,41.89 -55.79,4.83 -67.5,24.86 -90.56,61.97z"/>
   <path class="fil8" d="M2075.5 3840.75c9.15,-28.47 13.71,-54.38 5.16,-86.53 -4.77,-17.9 -2.64,-10.62 -9.31,-19.71 -26.8,16.21 -60.35,91.49 -77.35,134.6 -13.41,34.02 -42.07,131.17 -56.95,152.93 -63.02,-106.1 15.26,-348.86 3.11,-386.51 -44.43,-1.31 -83.42,6.21 -113.48,33.68 -42.39,38.73 -14.73,64.8 -2.65,111.54 12.87,49.76 2,96.74 -21.75,134.66 -10.8,17.25 -22.4,29.36 -34.79,41.68l-44.27 42.41c41.72,18.65 58.38,31.01 74.37,69.85 123.56,-15.33 155.6,-12.35 267.91,23.19 -17.51,-114.18 4.64,-154.33 10,-251.79z"/>
   <path class="fil9" d="M1714.7 5468.39c143.38,41.29 224.81,90.08 294.81,183.44 91.13,121.53 86.62,216.82 54.72,378.87 38.28,21.88 80.91,58.96 125.46,84.96 33.85,19.75 99.64,67.19 133.4,76.96 -26.87,-45.83 -124.69,-98.17 -190.51,-194.75 31.75,18.66 91.01,58.28 131.39,66.99 -18.09,-46.28 -60.43,-97.25 -86.14,-149.57 -28.13,-57.25 -42.56,-107.25 -74.72,-162.03l-118.29 -237.52c-12.35,-26.54 -19.17,-57.13 -32.01,-84.99l-237.44 -21.46 -0.67 59.1z"/>
   <path class="fil9" d="M2118.98 5603.8c-4.75,-31.71 -24.64,-63.9 -40.32,-95.77 -43.82,-89.07 -11.4,-86.04 -58.11,-88.64 -26.74,53.95 76,260.44 96.92,302.15 23.51,46.9 49.64,87.13 80.2,123.05 35.96,42.26 58.62,92.01 103.15,111.46 -6.96,-53.36 -16.89,-103.78 -22.82,-157.16 -9.99,-90.05 8.36,-81.06 -35.37,-151.43l-87.62 -190.73c-13.16,-39.55 -7.12,-49.85 -41.33,-52.35 -34.16,55.07 -1.7,145.97 5.3,199.42z"/>
   <path class="fil7" d="M3983.79 4939.54c39.07,14.18 96.97,14.84 136.96,32.3 47.73,20.83 62.24,41.71 118.06,55.83 26.39,-25.32 40.89,-80.48 53.77,-110.75 21.62,-50.79 -1.33,-24.05 33.75,-32.26 14.01,72.54 -37.24,94.64 -42.49,151.62 46.63,-0.24 80.64,-131.57 79.87,-138.99 -4.59,-43.86 -75.89,-92.36 -117.77,-109.59 -156.32,-64.32 -270.65,105.6 -262.15,151.84z"/>
   <path class="fil14" d="M1538.4 4679.53c106.01,14.94 180.13,74.38 206.46,162.29 51.26,171.12 -68.42,217.03 -72.2,292.36 124.85,-64.45 74.94,-80.84 136.17,-204.41 54.34,-109.66 93.83,-109.13 157.51,-179.08 -43.83,-42.37 -74.75,-44.03 -112.85,-102.05 -65.4,25.41 -51.7,67.8 -172.05,56.92 -53.45,-4.83 -127.16,-50.28 -137.48,-74.75l-5.56 48.72z"/>
   <path class="fil0" d="M4069.48 1191.36l-121.12 154.47c-58.99,85.03 25.71,151.68 104.64,154.25 77.02,2.49 165.75,-51.8 126.54,-134.15 -6.19,-13.01 -103.69,-168.98 -110.06,-174.57z"/>
   <path class="fil0" d="M5517.28 6935.14l76.97 -464.73c-32.82,-29.19 -15.02,-22.12 -34.64,-58.55 -16.75,14.52 -161.08,218.55 -165.42,239.69 -3.88,18.92 105.25,256.49 123.09,283.59z"/>
   <path class="fil0" d="M4743.36 1430.47c-34.14,3.96 -182.82,40.38 -210.11,51.03 -76.27,29.77 -34.43,137.54 4.3,177.79 38.48,40 137.17,79.91 167.6,2.12 8.95,-22.85 35.7,-198.22 38.21,-230.94z"/>
   <path class="fil15" d="M3383.68 1135.24c-7.37,11.69 -49.87,194.56 -48.21,213.49 14.35,163.6 364.77,13.98 198.99,-109.01 -38.92,-28.88 -108.71,-82.75 -150.78,-104.48z"/>
   <path class="fil14" d="M1614.11 5453.85l4.44 -92.03c-39.59,-28.9 -65.12,-28.95 -91.58,-74.04 -27,-46.03 -21.45,-97.37 15.6,-116.22 -75.29,16.63 -130.27,76.43 -120.53,172.36 10.26,101.05 87.04,117.81 192.07,109.93z"/>
   <path class="fil0" d="M6621.45 5552.27c60.98,-36.35 253.87,-204.1 195.01,-261.27 -19.17,-18.62 -73.47,-9.32 -97.79,-6 -60.82,8.31 -52.98,3.61 -61.98,63.61 -9.53,63.56 -33.45,143.02 -35.24,203.66z"/>
   <path class="fil9" d="M3639.77 6419.95c25.28,91.82 190.38,101.59 213.4,-21.52 -38.27,-22.16 -65.13,-52.29 -97.57,-79.63 -52.67,69.53 -81.63,66.35 -115.83,101.15z"/>
   <path class="fil7" d="M1419.41 6366.99c10.2,-26.79 13.68,-53.95 25.66,-82.94 -118.87,-21.31 -72.7,-110.34 -134.69,-166.2 -90.24,82.65 -14.04,250.59 109.03,249.14z"/>
   <path class="fil2" d="M5906.74 1412.88c3.59,1.26 20.96,9.24 45.37,-0.24 81.75,-31.77 117.84,-28.37 115.83,-89.02 -2.04,-61.44 -78.25,-128.25 -150.12,-117.51 2.32,2.83 106.62,95.24 22.82,167.94 -29.92,25.96 -39.5,19.22 -33.9,38.83z"/>
   <path class="fil7" d="M1580.85 6277.18c-155.08,-57.16 -161,196.02 2.39,212.43 -10.16,-105.99 -27.99,-46.4 -44.89,-105.37 -17.11,-59.67 19.88,-86.36 42.5,-107.06z"/>
   <path class="fil16" d="M4030.93 1439.15c6.3,-39.78 13.19,-118.58 34.99,-153.83 0.62,-1.01 2.32,-3.14 3.56,-4.64 18.74,39.28 25.4,96.06 30.28,139.61l45.02 -28.36c-9.92,-52.16 -58.32,-106.59 -71.14,-157.76l-43.02 50.39c-37.59,55.08 -107.11,125.9 0.31,154.59z"/>
   <path class="fil17" d="M4544.21 1516.24l5.68 72.11c34.27,-7.39 24.58,-9.53 73.68,-50.07 21.58,-17.81 47.55,-40.54 70.58,-51.63l-62.04 149.5c58.05,1.63 56.14,-13.96 80.92,-171.41 -50.94,7.39 -132.62,30.45 -168.82,51.5z"/>
   <path class="fil18" d="M3377.39 1357.25l67.92 24.86c7.55,-34.24 1.57,-26.32 -14.84,-87.84 -7.21,-27.04 -17.06,-60.11 -17.55,-85.67l110.09 118.66c25.65,-52.1 10.68,-56.85 -122.15,-144.95 -14.49,49.39 -27.54,133.26 -23.47,174.94z"/>
   <path class="fil19" d="M2907.54 1381.02l41.78 11.19 -41.02 -118.97c20.51,10.78 43.1,32.63 61.94,49.76 42.85,38.99 33.87,40.9 64.86,48.33l8.92 -68.2c-32.05,-20.38 -105.63,-43.24 -151.87,-50.88 6.37,65.39 9.46,104.99 15.39,128.77z"/>
   <g>
    <path class="fil20" d="M4265.76 7741.41c-23.9,-121.5 -0.38,-190.25 -17.32,-300.32l-32.71 -1.62 12.9 300.5 37.13 1.44z"/>
    <path class="fil21" d="M4248.44 7441.09c16.94,110.07 -6.58,178.82 17.32,300.32 25.91,-18.21 12.87,-109.22 12.92,-144.73 0.07,-53.33 -2.15,-106.06 -2.13,-159.13l-28.11 3.54z"/>
   </g>
   <path class="fil0" d="M5627.7 6667.78c60.98,-36.35 253.87,-204.1 195.01,-261.27 -19.17,-18.62 -73.47,-9.32 -97.79,-6 -60.82,8.31 -52.98,3.61 -61.98,63.61 -9.53,63.56 -33.45,143.02 -35.24,203.66z"/>
   <path class="fil0" d="M6028.27 6629.83c60.98,-36.35 253.87,-204.1 195.01,-261.27 -19.17,-18.62 -73.47,-9.32 -97.79,-6 -60.82,8.31 -52.98,3.61 -61.98,63.61 -9.53,63.56 -33.45,143.02 -35.24,203.66z"/>
   <path class="fil22" d="M5961.9 5746.17l3.4 18.83 23.86 4.41 110.35 -10.63 -13.44 -337.43c-32.6,29.19 -51.52,103.9 -69.85,152.46 -18.62,49.37 -55.32,123.69 -54.32,172.36z"/>
   <path class="fil23" d="M2869.64 3250.19c13.14,66.13 73.29,45.7 73.24,0l-73.24 0z"/>
   <path class="fil23" d="M4328.32 3219.88c13.14,66.13 73.29,45.7 73.24,0l-73.24 0z"/>
   <path class="fil24" d="M3712 3545.98l416.16 0c-64.04,-36.66 -94.16,-27.45 -164.72,-81.79 -32.02,-24.66 -91.21,-89.03 -94.73,-148.92 -22.88,-20.45 -29.45,-60.41 -27.08,-97.98l195.6 -20.81 3.87 34.32c43.8,217.42 362.03,198.1 414.33,9.26l10.77 -24.88 108.81 20.48c-0.46,64.25 -23.38,99.94 -38.4,115.97 -27.4,61.59 -60.94,87.22 -108.48,122.93 -58.55,43.98 -104.68,41.33 -164.31,71.42l141.7 0c16.59,-18.66 39.54,-25.46 61.85,-40.93 23.37,-16.2 39.05,-30.49 58.27,-51.31 25.91,-28.05 67.42,-103.04 92.59,-124.31l0 -163.21 -971.89 0c0.1,160.38 27.63,240.36 65.66,379.76z"/>
   <path class="fil25" d="M3868.71 3315.27c3.52,59.89 62.71,124.26 94.73,148.92 70.56,54.34 100.68,45.13 164.72,81.79l135.66 0c59.63,-30.09 105.76,-27.44 164.31,-71.42 47.54,-35.71 81.08,-61.34 108.48,-122.93 -60.92,-2.12 4.6,22.5 -110.23,81.58 13.73,-17.93 12,-20.01 22.87,-38.05 8.62,-14.32 15.18,-21.26 23.29,-36.14 16.46,-30.23 22.95,-61.89 21.68,-103.32l-38.79 -15.64c-52.3,188.84 -370.53,208.16 -414.33,-9.26 -37.31,10.1 -76.97,13.38 -112.45,24.89 -38.21,12.39 -52.46,21.53 -59.94,59.58z"/>
   <path class="fil13" d="M4455.43 3240.06l38.79 15.64c1.27,41.43 -5.22,73.09 -21.68,103.32 -8.11,14.88 -14.67,21.82 -23.29,36.14 -10.87,18.04 -9.14,20.12 -22.87,38.05 114.83,-59.08 49.31,-83.7 110.23,-81.58 15.02,-16.03 37.94,-51.72 38.4,-115.97l-108.81 -20.48 -10.77 24.88z"/>
   <path class="fil13" d="M3868.71 3315.27c7.48,-38.05 21.73,-47.19 59.94,-59.58 35.48,-11.51 75.14,-14.79 112.45,-24.89l-3.87 -34.32 -195.6 20.81c-2.37,37.57 4.2,77.53 27.08,97.98z"/>
   <path class="fil25" d="M4322.94 3217.42c4.08,23.81 9.07,41.79 40.61,40.49 29.17,-1.2 31.2,-14.71 38.99,-38.3 -15.96,-7.8 -66.47,-14.66 -79.6,-2.19z"/>
   <path class="fil25" d="M2856.25 3246.06c7.02,35.21 14.44,40.16 51.2,36.79 16.13,-14 19.94,-10.69 21.86,-36.87l-73.06 0.08z"/>
   <path class="fil13" d="M2495.19 3434.93c2.97,-38.44 17.11,-74.93 47.72,-89.96 28.42,-13.96 61,-20.02 91.05,-32.71l-12.5 -34.03 -150.53 36.26c1.21,37.61 3.57,101.67 24.26,120.44z"/>
   <path class="fil26" d="M3323.49 7668.9l-34.98 36.75c20.81,27.79 74.75,52.52 112.49,68.02 86.49,35.54 82.3,2.99 143.99,-4 25.91,-7.01 6.12,3.14 22.12,-13.64l41.98 -80.48c13.26,27.82 -0.85,47.66 -17.47,71.57l-47.81 57.44c42.01,0.35 87.77,0.7 129.04,-10.86 57.21,-16.03 29.52,-30.05 87.25,-57.34l-7.91 29.91c8.51,-8.19 5.07,-3.91 12.49,-15.84 4.21,-6.76 8.59,-15.65 11.99,-23.52 10.15,-23.48 11.44,-27.22 14.39,-55.17l-3.75 -33.34c-42.76,25.38 -14.47,31.94 -59.91,51.07 -33.86,14.25 -44.41,15.17 -78.49,32.24 8.6,-41.29 19.49,-61.73 3.96,-98.35 -18.81,-3.08 -7.13,3.29 -38.15,2.36 -6.92,53.86 -43.67,87.1 -92.39,98.63 20.58,-67.45 -19.53,-106.4 -80.4,-110.57 25.67,-29.18 -38.72,-31.2 47.47,-17.18 32.61,5.31 62.83,37.71 56.8,83.4 37.8,-82.41 -30.03,-121.3 -78.94,-149.43l-37.55 37.1c-19.75,19.68 -14.49,13.2 -30.79,37.46 -30.58,45.52 -51.39,29.78 -75.43,63.77z"/>
   <path class="fil27" d="M3541.3 7352.58c3.28,-44.6 -29.48,-245.94 -22.67,-403.78 6.03,-139.66 46.56,-270.08 46.33,-402.04l-90.66 7.9c-12.18,152.01 -30.38,283.2 -31.64,436.59 -0.66,80.73 6.48,138.66 19.13,210.88 11.97,68.31 -5.82,157.94 79.51,150.45z"/>
   <path class="fil26" d="M3804.58 7688.91l9 17.66c0.73,1.43 2.07,4.35 2.8,5.77l5.96 10.82c43.08,-16.88 47.19,-26.81 73.73,-45.42 19.84,-13.92 3.86,-17.69 19.66,-2.41l6.84 -25.21 -10.01 -61.13c-27.47,28.66 -57.85,61.42 -89.24,33.84l-30.7 -28.43c5.33,37.71 8.45,55.97 11.96,94.51z"/>
   <path class="fil28" d="M3264.35 7690.58l0 46.48c93.65,48.35 187.39,130.92 280.64,32.61 -61.69,6.99 -57.5,39.54 -143.99,4 -37.74,-15.5 -91.68,-40.23 -112.49,-68.02l34.98 -36.75 -59.14 21.68z"/>
   <path class="fil28" d="M3543.81 7804.56l-14.23 26.82c84.73,26.21 200.59,-10.5 222.61,-65.11l7.91 -29.91c-57.73,27.29 -30.04,41.31 -87.25,57.34 -41.27,11.56 -87.03,11.21 -129.04,10.86z"/>
   <path class="fil29" d="M3804.58 7688.91c3.08,35.66 3.08,12.95 -8.16,20.84l-10.74 55.92c54.68,-10.95 113.91,-50.22 130.05,-90.34 -15.8,-15.28 0.18,-11.51 -19.66,2.41 -26.54,18.61 -30.65,28.54 -73.73,45.42l-5.96 -10.82c-0.73,-1.42 -2.07,-4.34 -2.8,-5.77l-9 -17.66z"/>
   <path class="fil30" d="M4211.44 7374.94c12.6,7.66 -13.29,3.22 22.18,8.69 89.79,13.84 62.22,-105.28 57.88,-135.06 -37.54,-257.18 -5.86,-437.03 -5.88,-680.23 2.12,-43.08 26.19,-237.1 -72.19,-174.83l29.25 3.47c17.64,111.94 -12.53,539.89 -2.72,757.25 8.01,177.67 31.27,176.07 -28.52,220.71z"/>
   <path class="fil31" d="M3544.17 7362.4c47.94,48.19 -21.28,-315.47 24.73,-649.33 3.79,-558.23 -95.45,324.03 -27.04,585.89 3.31,124.03 -0.19,62.79 2.31,63.44z"/>
  </g>
 </g>
</svg>
